<svg width="2166" height="604" viewBox="0 0 2166 604" xmlns="http://www.w3.org/2000/svg" style="background:#0a0a0a">
<rect width="2166" height="604" fill="#0a0a0a"/>
<defs>
<marker id="ar" viewBox="0 0 10 10" refX="8" refY="5" markerWidth="5" markerHeight="5" orient="auto-start-reverse"><path d="M2 1L8 5L2 9" fill="none" stroke="#555553" stroke-width="1.5" stroke-linecap="round" stroke-linejoin="round"/></marker>
<marker id="ar_port_80" viewBox="0 0 10 10" refX="8" refY="5" markerWidth="5" markerHeight="5" orient="auto-start-reverse"><path d="M2 1L8 5L2 9" fill="none" stroke="#5DCAA5" stroke-width="1.5" stroke-linecap="round" stroke-linejoin="round"/></marker>
<marker id="ar_guest" viewBox="0 0 10 10" refX="8" refY="5" markerWidth="5" markerHeight="5" orient="auto-start-reverse"><path d="M2 1L8 5L2 9" fill="none" stroke="#EF9F27" stroke-width="1.5" stroke-linecap="round" stroke-linejoin="round"/></marker>
<marker id="ar_file1" viewBox="0 0 10 10" refX="8" refY="5" markerWidth="5" markerHeight="5" orient="auto-start-reverse"><path d="M2 1L8 5L2 9" fill="none" stroke="#97C459" stroke-width="1.5" stroke-linecap="round" stroke-linejoin="round"/></marker>
<marker id="ar_MD5" viewBox="0 0 10 10" refX="8" refY="5" markerWidth="5" markerHeight="5" orient="auto-start-reverse"><path d="M2 1L8 5L2 9" fill="none" stroke="#F0997B" stroke-width="1.5" stroke-linecap="round" stroke-linejoin="round"/></marker>
<marker id="ar_pass1" viewBox="0 0 10 10" refX="8" refY="5" markerWidth="5" markerHeight="5" orient="auto-start-reverse"><path d="M2 1L8 5L2 9" fill="none" stroke="#ED93B1" stroke-width="1.5" stroke-linecap="round" stroke-linejoin="round"/></marker>
<marker id="ar_pass2" viewBox="0 0 10 10" refX="8" refY="5" markerWidth="5" markerHeight="5" orient="auto-start-reverse"><path d="M2 1L8 5L2 9" fill="none" stroke="#EF9F27" stroke-width="1.5" stroke-linecap="round" stroke-linejoin="round"/></marker>
<marker id="ar_valid_domain_users1" viewBox="0 0 10 10" refX="8" refY="5" markerWidth="5" markerHeight="5" orient="auto-start-reverse"><path d="M2 1L8 5L2 9" fill="none" stroke="#F09595" stroke-width="1.5" stroke-linecap="round" stroke-linejoin="round"/></marker>
<marker id="ar_valid_creds1" viewBox="0 0 10 10" refX="8" refY="5" markerWidth="5" markerHeight="5" orient="auto-start-reverse"><path d="M2 1L8 5L2 9" fill="none" stroke="#B4B2A9" stroke-width="1.5" stroke-linecap="round" stroke-linejoin="round"/></marker>
<marker id="ar_SMB1" viewBox="0 0 10 10" refX="8" refY="5" markerWidth="5" markerHeight="5" orient="auto-start-reverse"><path d="M2 1L8 5L2 9" fill="none" stroke="#85B7EB" stroke-width="1.5" stroke-linecap="round" stroke-linejoin="round"/></marker>
<marker id="ar_valid_domain_users2" viewBox="0 0 10 10" refX="8" refY="5" markerWidth="5" markerHeight="5" orient="auto-start-reverse"><path d="M2 1L8 5L2 9" fill="none" stroke="#F0997B" stroke-width="1.5" stroke-linecap="round" stroke-linejoin="round"/></marker>
<marker id="ar_WINRM1" viewBox="0 0 10 10" refX="8" refY="5" markerWidth="5" markerHeight="5" orient="auto-start-reverse"><path d="M2 1L8 5L2 9" fill="none" stroke="#ED93B1" stroke-width="1.5" stroke-linecap="round" stroke-linejoin="round"/></marker>
<marker id="ar_user1" viewBox="0 0 10 10" refX="8" refY="5" markerWidth="5" markerHeight="5" orient="auto-start-reverse"><path d="M2 1L8 5L2 9" fill="none" stroke="#F09595" stroke-width="1.5" stroke-linecap="round" stroke-linejoin="round"/></marker>
<marker id="ar_user2" viewBox="0 0 10 10" refX="8" refY="5" markerWidth="5" markerHeight="5" orient="auto-start-reverse"><path d="M2 1L8 5L2 9" fill="none" stroke="#B4B2A9" stroke-width="1.5" stroke-linecap="round" stroke-linejoin="round"/></marker>
<marker id="ar_user3" viewBox="0 0 10 10" refX="8" refY="5" markerWidth="5" markerHeight="5" orient="auto-start-reverse"><path d="M2 1L8 5L2 9" fill="none" stroke="#85B7EB" stroke-width="1.5" stroke-linecap="round" stroke-linejoin="round"/></marker>
<marker id="ar_hashes" viewBox="0 0 10 10" refX="8" refY="5" markerWidth="5" markerHeight="5" orient="auto-start-reverse"><path d="M2 1L8 5L2 9" fill="none" stroke="#5DCAA5" stroke-width="1.5" stroke-linecap="round" stroke-linejoin="round"/></marker>
</defs>
<line x1="128.0" y1="359.0" x2="188.0" y2="253.0" stroke="#5DCAA5" stroke-width="1.5" stroke-dasharray="5 3" marker-end="url(#ar_port_80)"/>
<line x1="274.0" y1="359.0" x2="332.0" y2="253.0" stroke="#EF9F27" stroke-width="1.5" stroke-dasharray="5 3" marker-end="url(#ar_guest)"/>
<line x1="416.0" y1="359.0" x2="474.0" y2="253.0" stroke="#97C459" stroke-width="1.5" stroke-dasharray="5 3" marker-end="url(#ar_file1)"/>
<line x1="558.0" y1="473.0" x2="616.0" y2="253.0" stroke="#F0997B" stroke-width="1.5" stroke-dasharray="5 3" marker-end="url(#ar_MD5)"/>
<line x1="700.0" y1="359.0" x2="756.0" y2="253.0" stroke="#ED93B1" stroke-width="1.5" stroke-dasharray="5 3" marker-end="url(#ar_pass1)"/>
<line x1="840.0" y1="397.0" x2="943.0" y2="253.0" stroke="#ED93B1" stroke-width="1.5" stroke-dasharray="5 3" marker-end="url(#ar_pass1)"/>
<line x1="840.0" y1="435.0" x2="943.0" y2="291.0" stroke="#EF9F27" stroke-width="1.5" stroke-dasharray="5 3" marker-end="url(#ar_pass2)"/>
<line x1="1074.0" y1="549.0" x2="1130.0" y2="253.0" stroke="#F09595" stroke-width="1.5" stroke-dasharray="5 3" marker-end="url(#ar_valid_domain_users1)"/>
<line x1="1282.0" y1="473.0" x2="1378.0" y2="253.0" stroke="#B4B2A9" stroke-width="1.5" stroke-dasharray="5 3" marker-end="url(#ar_valid_creds1)"/>
<line x1="1483.0" y1="359.0" x2="1621.0" y2="253.0" stroke="#85B7EB" stroke-width="1.5" stroke-dasharray="5 3" marker-end="url(#ar_SMB1)"/>
<line x1="1752.0" y1="359.0" x2="1808.0" y2="253.0" stroke="#F0997B" stroke-width="1.5" stroke-dasharray="5 3" marker-end="url(#ar_valid_domain_users2)"/>
<line x1="1939.0" y1="473.0" x2="2042.0" y2="253.0" stroke="#ED93B1" stroke-width="1.5" stroke-dasharray="5 3" marker-end="url(#ar_WINRM1)"/>
<path d="M376.0,382.0 L376.0,229.0 L987.0,229.0 L987.0,367.0" fill="none" stroke="#F09595" stroke-width="1.2" stroke-dasharray="6 3" marker-end="url(#ar_user1)"/>
<text x="681.5" y="225.0" text-anchor="middle" font-family="Arial, sans-serif" font-size="10" fill="#F09595">user1</text>
<path d="M518.0,344.0 L518.0,211.0 L987.0,211.0 L987.0,405.0" fill="none" stroke="#B4B2A9" stroke-width="1.2" stroke-dasharray="6 3" marker-end="url(#ar_user2)"/>
<text x="752.5" y="207.0" text-anchor="middle" font-family="Arial, sans-serif" font-size="10" fill="#B4B2A9">user2</text>
<path d="M518.0,382.0 L518.0,193.0 L987.0,193.0 L987.0,443.0" fill="none" stroke="#85B7EB" stroke-width="1.2" stroke-dasharray="6 3" marker-end="url(#ar_user3)"/>
<text x="752.5" y="189.0" text-anchor="middle" font-family="Arial, sans-serif" font-size="10" fill="#85B7EB">user3</text>
<path d="M518.0,420.0 L518.0,175.0 L800.0,175.0 L800.0,291.0" fill="none" stroke="#5DCAA5" stroke-width="1.2" stroke-dasharray="6 3" marker-end="url(#ar_hashes)"/>
<text x="659.0" y="171.0" text-anchor="middle" font-family="Arial, sans-serif" font-size="10" fill="#5DCAA5">hashes</text>
<path d="M660.0,344.0 L660.0,157.0 L987.0,157.0 L987.0,253.0" fill="none" stroke="#ED93B1" stroke-width="1.2" stroke-dasharray="6 3" marker-end="url(#ar_pass1)"/>
<text x="823.5" y="153.0" text-anchor="middle" font-family="Arial, sans-serif" font-size="10" fill="#ED93B1">pass1</text>
<path d="M660.0,344.0 L660.0,139.0 L1221.0,139.0 L1221.0,291.0" fill="none" stroke="#ED93B1" stroke-width="1.2" stroke-dasharray="6 3" marker-end="url(#ar_pass1)"/>
<text x="940.5" y="135.0" text-anchor="middle" font-family="Arial, sans-serif" font-size="10" fill="#ED93B1">pass1</text>
<path d="M660.0,344.0 L660.0,121.0 L1899.0,121.0 L1899.0,291.0" fill="none" stroke="#ED93B1" stroke-width="1.2" stroke-dasharray="6 3" marker-end="url(#ar_pass1)"/>
<text x="1279.5" y="117.0" text-anchor="middle" font-family="Arial, sans-serif" font-size="10" fill="#ED93B1">pass1</text>
<path d="M800.0,382.0 L800.0,103.0 L1221.0,103.0 L1221.0,291.0" fill="none" stroke="#ED93B1" stroke-width="1.2" stroke-dasharray="6 3" marker-end="url(#ar_pass1)"/>
<text x="1010.5" y="99.0" text-anchor="middle" font-family="Arial, sans-serif" font-size="10" fill="#ED93B1">pass1</text>
<path d="M800.0,382.0 L800.0,85.0 L1899.0,85.0 L1899.0,291.0" fill="none" stroke="#ED93B1" stroke-width="1.2" stroke-dasharray="6 3" marker-end="url(#ar_pass1)"/>
<text x="1349.5" y="81.0" text-anchor="middle" font-family="Arial, sans-serif" font-size="10" fill="#ED93B1">pass1</text>
<path d="M800.0,420.0 L800.0,67.0 L1221.0,67.0 L1221.0,329.0" fill="none" stroke="#EF9F27" stroke-width="1.2" stroke-dasharray="6 3" marker-end="url(#ar_pass2)"/>
<text x="1010.5" y="63.0" text-anchor="middle" font-family="Arial, sans-serif" font-size="10" fill="#EF9F27">pass2</text>
<path d="M800.0,420.0 L800.0,49.0 L1899.0,49.0 L1899.0,329.0" fill="none" stroke="#EF9F27" stroke-width="1.2" stroke-dasharray="6 3" marker-end="url(#ar_pass2)"/>
<text x="1349.5" y="45.0" text-anchor="middle" font-family="Arial, sans-serif" font-size="10" fill="#EF9F27">pass2</text>
<line x1="86.0" y1="268.0" x2="86.0" y2="288.0" stroke="#555553" stroke-width="1" marker-end="url(#ar)"/>
<line x1="86.0" y1="322.0" x2="86.0" y2="342.0" stroke="#555553" stroke-width="1" marker-end="url(#ar)"/>
<rect x="46.0" y="238.0" width="80" height="30" rx="6" fill="#378ADD" stroke="#85B7EB" stroke-width="0.5"/>
<text x="86.0" y="253.0" text-anchor="middle" dominant-baseline="central" font-family="Arial, sans-serif" font-size="12" font-weight="500" fill="#E6F1FB">target</text>
<ellipse cx="86.0" cy="306.0" rx="30" ry="16" fill="#7F77DD" stroke="#AFA9EC" stroke-width="0.5"/>
<text x="86.0" y="306.0" text-anchor="middle" dominant-baseline="central" font-family="Arial, sans-serif" font-size="11" font-weight="500" fill="#EEEDFE">nmap</text>
<rect x="44.0" y="344.0" width="84" height="30" rx="6" fill="#1D9E75" stroke="#5DCAA5" stroke-width="0.5"/>
<text x="86.0" y="359.0" text-anchor="middle" dominant-baseline="central" font-family="Arial, sans-serif" font-size="12" font-weight="500" fill="#E1F5EE">port 80</text>
<line x1="86.0" y1="374.0" x2="86.0" y2="382.0" stroke="#555553" stroke-width="0.5"/>
<rect x="40.0" y="382.0" width="92" height="30" rx="6" fill="#D85A30" stroke="#F0997B" stroke-width="0.5"/>
<text x="86.0" y="397.0" text-anchor="middle" dominant-baseline="central" font-family="Arial, sans-serif" font-size="12" font-weight="500" fill="#FAECE7">port 135</text>
<line x1="86.0" y1="412.0" x2="86.0" y2="420.0" stroke="#555553" stroke-width="0.5"/>
<rect x="40.0" y="420.0" width="92" height="30" rx="6" fill="#D4537E" stroke="#ED93B1" stroke-width="0.5"/>
<text x="86.0" y="435.0" text-anchor="middle" dominant-baseline="central" font-family="Arial, sans-serif" font-size="12" font-weight="500" fill="#FBEAF0">port 445</text>
<line x1="234.0" y1="268.0" x2="234.0" y2="288.0" stroke="#555553" stroke-width="1" marker-end="url(#ar)"/>
<line x1="234.0" y1="322.0" x2="234.0" y2="342.0" stroke="#555553" stroke-width="1" marker-end="url(#ar)"/>
<rect x="192.0" y="238.0" width="84" height="30" rx="6" fill="#1D9E75" stroke="#5DCAA5" stroke-width="0.5"/>
<text x="234.0" y="253.0" text-anchor="middle" dominant-baseline="central" font-family="Arial, sans-serif" font-size="12" font-weight="500" fill="#E1F5EE">port 80</text>
<ellipse cx="234.0" cy="306.0" rx="32" ry="16" fill="#7F77DD" stroke="#AFA9EC" stroke-width="0.5"/>
<text x="234.0" y="306.0" text-anchor="middle" dominant-baseline="central" font-family="Arial, sans-serif" font-size="11" font-weight="500" fill="#EEEDFE">login</text>
<rect x="194.0" y="344.0" width="80" height="30" rx="6" fill="#BA7517" stroke="#EF9F27" stroke-width="0.5"/>
<text x="234.0" y="359.0" text-anchor="middle" dominant-baseline="central" font-family="Arial, sans-serif" font-size="12" font-weight="500" fill="#FAEEDA">guest</text>
<line x1="376.0" y1="268.0" x2="376.0" y2="288.0" stroke="#555553" stroke-width="1" marker-end="url(#ar)"/>
<line x1="376.0" y1="322.0" x2="376.0" y2="342.0" stroke="#555553" stroke-width="1" marker-end="url(#ar)"/>
<rect x="336.0" y="238.0" width="80" height="30" rx="6" fill="#BA7517" stroke="#EF9F27" stroke-width="0.5"/>
<text x="376.0" y="253.0" text-anchor="middle" dominant-baseline="central" font-family="Arial, sans-serif" font-size="12" font-weight="500" fill="#FAEEDA">guest</text>
<ellipse cx="376.0" cy="306.0" rx="32" ry="16" fill="#7F77DD" stroke="#AFA9EC" stroke-width="0.5"/>
<text x="376.0" y="306.0" text-anchor="middle" dominant-baseline="central" font-family="Arial, sans-serif" font-size="11" font-weight="500" fill="#EEEDFE">found</text>
<rect x="336.0" y="344.0" width="80" height="30" rx="6" fill="#639922" stroke="#97C459" stroke-width="0.5"/>
<text x="376.0" y="359.0" text-anchor="middle" dominant-baseline="central" font-family="Arial, sans-serif" font-size="12" font-weight="500" fill="#EAF3DE">file1</text>
<line x1="376.0" y1="374.0" x2="376.0" y2="382.0" stroke="#555553" stroke-width="0.5"/>
<rect x="336.0" y="382.0" width="80" height="30" rx="6" fill="#E24B4A" stroke="#F09595" stroke-width="0.5"/>
<text x="376.0" y="397.0" text-anchor="middle" dominant-baseline="central" font-family="Arial, sans-serif" font-size="12" font-weight="500" fill="#FCEBEB">user1</text>
<line x1="518.0" y1="268.0" x2="518.0" y2="288.0" stroke="#555553" stroke-width="1" marker-end="url(#ar)"/>
<line x1="518.0" y1="322.0" x2="518.0" y2="342.0" stroke="#555553" stroke-width="1" marker-end="url(#ar)"/>
<rect x="478.0" y="238.0" width="80" height="30" rx="6" fill="#639922" stroke="#97C459" stroke-width="0.5"/>
<text x="518.0" y="253.0" text-anchor="middle" dominant-baseline="central" font-family="Arial, sans-serif" font-size="12" font-weight="500" fill="#EAF3DE">file1</text>
<ellipse cx="518.0" cy="306.0" rx="42" ry="16" fill="#7F77DD" stroke="#AFA9EC" stroke-width="0.5"/>
<text x="518.0" y="306.0" text-anchor="middle" dominant-baseline="central" font-family="Arial, sans-serif" font-size="11" font-weight="500" fill="#EEEDFE">contains</text>
<rect x="478.0" y="344.0" width="80" height="30" rx="6" fill="#888780" stroke="#B4B2A9" stroke-width="0.5"/>
<text x="518.0" y="359.0" text-anchor="middle" dominant-baseline="central" font-family="Arial, sans-serif" font-size="12" font-weight="500" fill="#F1EFE8">user2</text>
<line x1="518.0" y1="374.0" x2="518.0" y2="382.0" stroke="#555553" stroke-width="0.5"/>
<rect x="478.0" y="382.0" width="80" height="30" rx="6" fill="#378ADD" stroke="#85B7EB" stroke-width="0.5"/>
<text x="518.0" y="397.0" text-anchor="middle" dominant-baseline="central" font-family="Arial, sans-serif" font-size="12" font-weight="500" fill="#E6F1FB">user3</text>
<line x1="518.0" y1="412.0" x2="518.0" y2="420.0" stroke="#555553" stroke-width="0.5"/>
<rect x="478.0" y="420.0" width="80" height="30" rx="6" fill="#1D9E75" stroke="#5DCAA5" stroke-width="0.5"/>
<text x="518.0" y="435.0" text-anchor="middle" dominant-baseline="central" font-family="Arial, sans-serif" font-size="12" font-weight="500" fill="#E1F5EE">hashes</text>
<line x1="518.0" y1="450.0" x2="518.0" y2="458.0" stroke="#555553" stroke-width="0.5"/>
<rect x="478.0" y="458.0" width="80" height="30" rx="6" fill="#D85A30" stroke="#F0997B" stroke-width="0.5"/>
<text x="518.0" y="473.0" text-anchor="middle" dominant-baseline="central" font-family="Arial, sans-serif" font-size="12" font-weight="500" fill="#FAECE7">MD5</text>
<line x1="660.0" y1="268.0" x2="660.0" y2="288.0" stroke="#555553" stroke-width="1" marker-end="url(#ar)"/>
<line x1="660.0" y1="322.0" x2="660.0" y2="342.0" stroke="#555553" stroke-width="1" marker-end="url(#ar)"/>
<rect x="620.0" y="238.0" width="80" height="30" rx="6" fill="#D85A30" stroke="#F0997B" stroke-width="0.5"/>
<text x="660.0" y="253.0" text-anchor="middle" dominant-baseline="central" font-family="Arial, sans-serif" font-size="12" font-weight="500" fill="#FAECE7">MD5</text>
<ellipse cx="660.0" cy="306.0" rx="32" ry="16" fill="#7F77DD" stroke="#AFA9EC" stroke-width="0.5"/>
<text x="660.0" y="306.0" text-anchor="middle" dominant-baseline="central" font-family="Arial, sans-serif" font-size="11" font-weight="500" fill="#EEEDFE">crack</text>
<rect x="620.0" y="344.0" width="80" height="30" rx="6" fill="#D4537E" stroke="#ED93B1" stroke-width="0.5"/>
<text x="660.0" y="359.0" text-anchor="middle" dominant-baseline="central" font-family="Arial, sans-serif" font-size="12" font-weight="500" fill="#FBEAF0">pass1</text>
<line x1="800.0" y1="306.0" x2="800.0" y2="326.0" stroke="#555553" stroke-width="1" marker-end="url(#ar)"/>
<line x1="800.0" y1="360.0" x2="800.0" y2="380.0" stroke="#555553" stroke-width="1" marker-end="url(#ar)"/>
<rect x="760.0" y="238.0" width="80" height="30" rx="6" fill="#D4537E" stroke="#ED93B1" stroke-width="0.5"/>
<text x="800.0" y="253.0" text-anchor="middle" dominant-baseline="central" font-family="Arial, sans-serif" font-size="12" font-weight="500" fill="#FBEAF0">pass1</text>
<line x1="800.0" y1="268.0" x2="800.0" y2="276.0" stroke="#555553" stroke-width="0.5"/>
<rect x="760.0" y="276.0" width="80" height="30" rx="6" fill="#1D9E75" stroke="#5DCAA5" stroke-width="0.5"/>
<text x="800.0" y="291.0" text-anchor="middle" dominant-baseline="central" font-family="Arial, sans-serif" font-size="12" font-weight="500" fill="#E1F5EE">hashes</text>
<ellipse cx="800.0" cy="344.0" rx="39" ry="16" fill="#7F77DD" stroke="#AFA9EC" stroke-width="0.5"/>
<text x="800.0" y="344.0" text-anchor="middle" dominant-baseline="central" font-family="Arial, sans-serif" font-size="11" font-weight="500" fill="#EEEDFE">decrypt</text>
<rect x="760.0" y="382.0" width="80" height="30" rx="6" fill="#D4537E" stroke="#ED93B1" stroke-width="0.5"/>
<text x="800.0" y="397.0" text-anchor="middle" dominant-baseline="central" font-family="Arial, sans-serif" font-size="12" font-weight="500" fill="#FBEAF0">pass1</text>
<line x1="800.0" y1="412.0" x2="800.0" y2="420.0" stroke="#555553" stroke-width="0.5"/>
<rect x="760.0" y="420.0" width="80" height="30" rx="6" fill="#BA7517" stroke="#EF9F27" stroke-width="0.5"/>
<text x="800.0" y="435.0" text-anchor="middle" dominant-baseline="central" font-family="Arial, sans-serif" font-size="12" font-weight="500" fill="#FAEEDA">pass2</text>
<line x1="987.0" y1="458.0" x2="987.0" y2="478.0" stroke="#555553" stroke-width="1" marker-end="url(#ar)"/>
<line x1="987.0" y1="512.0" x2="987.0" y2="532.0" stroke="#555553" stroke-width="1" marker-end="url(#ar)"/>
<rect x="947.0" y="238.0" width="80" height="30" rx="6" fill="#D4537E" stroke="#ED93B1" stroke-width="0.5"/>
<text x="987.0" y="253.0" text-anchor="middle" dominant-baseline="central" font-family="Arial, sans-serif" font-size="12" font-weight="500" fill="#FBEAF0">pass1</text>
<line x1="987.0" y1="268.0" x2="987.0" y2="276.0" stroke="#555553" stroke-width="0.5"/>
<rect x="947.0" y="276.0" width="80" height="30" rx="6" fill="#BA7517" stroke="#EF9F27" stroke-width="0.5"/>
<text x="987.0" y="291.0" text-anchor="middle" dominant-baseline="central" font-family="Arial, sans-serif" font-size="12" font-weight="500" fill="#FAEEDA">pass2</text>
<line x1="987.0" y1="306.0" x2="987.0" y2="314.0" stroke="#555553" stroke-width="0.5"/>
<rect x="947.0" y="314.0" width="80" height="30" rx="6" fill="#639922" stroke="#97C459" stroke-width="0.5"/>
<text x="987.0" y="329.0" text-anchor="middle" dominant-baseline="central" font-family="Arial, sans-serif" font-size="12" font-weight="500" fill="#EAF3DE">pass3</text>
<line x1="987.0" y1="344.0" x2="987.0" y2="352.0" stroke="#555553" stroke-width="0.5"/>
<rect x="947.0" y="352.0" width="80" height="30" rx="6" fill="#E24B4A" stroke="#F09595" stroke-width="0.5"/>
<text x="987.0" y="367.0" text-anchor="middle" dominant-baseline="central" font-family="Arial, sans-serif" font-size="12" font-weight="500" fill="#FCEBEB">user1</text>
<line x1="987.0" y1="382.0" x2="987.0" y2="390.0" stroke="#555553" stroke-width="0.5"/>
<rect x="947.0" y="390.0" width="80" height="30" rx="6" fill="#888780" stroke="#B4B2A9" stroke-width="0.5"/>
<text x="987.0" y="405.0" text-anchor="middle" dominant-baseline="central" font-family="Arial, sans-serif" font-size="12" font-weight="500" fill="#F1EFE8">user2</text>
<line x1="987.0" y1="420.0" x2="987.0" y2="428.0" stroke="#555553" stroke-width="0.5"/>
<rect x="947.0" y="428.0" width="80" height="30" rx="6" fill="#378ADD" stroke="#85B7EB" stroke-width="0.5"/>
<text x="987.0" y="443.0" text-anchor="middle" dominant-baseline="central" font-family="Arial, sans-serif" font-size="12" font-weight="500" fill="#E6F1FB">user3</text>
<ellipse cx="987.0" cy="496.0" rx="68" ry="16" fill="#7F77DD" stroke="#AFA9EC" stroke-width="0.5"/>
<text x="987.0" y="496.0" text-anchor="middle" dominant-baseline="central" font-family="Arial, sans-serif" font-size="11" font-weight="500" fill="#EEEDFE">rid-brute-force</text>
<rect x="900.0" y="534.0" width="174" height="30" rx="6" fill="#E24B4A" stroke="#F09595" stroke-width="0.5"/>
<text x="987.0" y="549.0" text-anchor="middle" dominant-baseline="central" font-family="Arial, sans-serif" font-size="12" font-weight="500" fill="#FCEBEB">valid_domain_users1</text>
<line x1="1221.0" y1="382.0" x2="1221.0" y2="402.0" stroke="#555553" stroke-width="1" marker-end="url(#ar)"/>
<line x1="1221.0" y1="436.0" x2="1221.0" y2="456.0" stroke="#555553" stroke-width="1" marker-end="url(#ar)"/>
<rect x="1134.0" y="238.0" width="174" height="30" rx="6" fill="#E24B4A" stroke="#F09595" stroke-width="0.5"/>
<text x="1221.0" y="253.0" text-anchor="middle" dominant-baseline="central" font-family="Arial, sans-serif" font-size="12" font-weight="500" fill="#FCEBEB">valid_domain_users1</text>
<line x1="1221.0" y1="268.0" x2="1221.0" y2="276.0" stroke="#555553" stroke-width="0.5"/>
<rect x="1181.0" y="276.0" width="80" height="30" rx="6" fill="#D4537E" stroke="#ED93B1" stroke-width="0.5"/>
<text x="1221.0" y="291.0" text-anchor="middle" dominant-baseline="central" font-family="Arial, sans-serif" font-size="12" font-weight="500" fill="#FBEAF0">pass1</text>
<line x1="1221.0" y1="306.0" x2="1221.0" y2="314.0" stroke="#555553" stroke-width="0.5"/>
<rect x="1181.0" y="314.0" width="80" height="30" rx="6" fill="#BA7517" stroke="#EF9F27" stroke-width="0.5"/>
<text x="1221.0" y="329.0" text-anchor="middle" dominant-baseline="central" font-family="Arial, sans-serif" font-size="12" font-weight="500" fill="#FAEEDA">pass2</text>
<line x1="1221.0" y1="344.0" x2="1221.0" y2="352.0" stroke="#555553" stroke-width="0.5"/>
<rect x="1181.0" y="352.0" width="80" height="30" rx="6" fill="#639922" stroke="#97C459" stroke-width="0.5"/>
<text x="1221.0" y="367.0" text-anchor="middle" dominant-baseline="central" font-family="Arial, sans-serif" font-size="12" font-weight="500" fill="#EAF3DE">pass3</text>
<ellipse cx="1221.0" cy="420.0" rx="42" ry="16" fill="#7F77DD" stroke="#AFA9EC" stroke-width="0.5"/>
<text x="1221.0" y="420.0" text-anchor="middle" dominant-baseline="central" font-family="Arial, sans-serif" font-size="11" font-weight="500" fill="#EEEDFE">spraying</text>
<rect x="1160.0" y="458.0" width="122" height="30" rx="6" fill="#888780" stroke="#B4B2A9" stroke-width="0.5"/>
<text x="1221.0" y="473.0" text-anchor="middle" dominant-baseline="central" font-family="Arial, sans-serif" font-size="12" font-weight="500" fill="#F1EFE8">valid_creds1</text>
<line x1="1443.0" y1="268.0" x2="1443.0" y2="288.0" stroke="#555553" stroke-width="1" marker-end="url(#ar)"/>
<line x1="1443.0" y1="322.0" x2="1443.0" y2="342.0" stroke="#555553" stroke-width="1" marker-end="url(#ar)"/>
<rect x="1382.0" y="238.0" width="122" height="30" rx="6" fill="#888780" stroke="#B4B2A9" stroke-width="0.5"/>
<text x="1443.0" y="253.0" text-anchor="middle" dominant-baseline="central" font-family="Arial, sans-serif" font-size="12" font-weight="500" fill="#F1EFE8">valid_creds1</text>
<ellipse cx="1443.0" cy="306.0" rx="75" ry="16" fill="#7F77DD" stroke="#AFA9EC" stroke-width="0.5"/>
<text x="1443.0" y="306.0" text-anchor="middle" dominant-baseline="central" font-family="Arial, sans-serif" font-size="11" font-weight="500" fill="#EEEDFE">creds_vs_services</text>
<rect x="1403.0" y="344.0" width="80" height="30" rx="6" fill="#378ADD" stroke="#85B7EB" stroke-width="0.5"/>
<text x="1443.0" y="359.0" text-anchor="middle" dominant-baseline="central" font-family="Arial, sans-serif" font-size="12" font-weight="500" fill="#E6F1FB">SMB1</text>
<line x1="1443.0" y1="374.0" x2="1443.0" y2="382.0" stroke="#555553" stroke-width="0.5"/>
<rect x="1403.0" y="382.0" width="80" height="30" rx="6" fill="#1D9E75" stroke="#5DCAA5" stroke-width="0.5"/>
<text x="1443.0" y="397.0" text-anchor="middle" dominant-baseline="central" font-family="Arial, sans-serif" font-size="12" font-weight="500" fill="#E1F5EE">RPC1</text>
<line x1="1665.0" y1="268.0" x2="1665.0" y2="288.0" stroke="#555553" stroke-width="1" marker-end="url(#ar)"/>
<line x1="1665.0" y1="322.0" x2="1665.0" y2="342.0" stroke="#555553" stroke-width="1" marker-end="url(#ar)"/>
<rect x="1625.0" y="238.0" width="80" height="30" rx="6" fill="#378ADD" stroke="#85B7EB" stroke-width="0.5"/>
<text x="1665.0" y="253.0" text-anchor="middle" dominant-baseline="central" font-family="Arial, sans-serif" font-size="12" font-weight="500" fill="#E6F1FB">SMB1</text>
<ellipse cx="1665.0" cy="306.0" rx="68" ry="16" fill="#7F77DD" stroke="#AFA9EC" stroke-width="0.5"/>
<text x="1665.0" y="306.0" text-anchor="middle" dominant-baseline="central" font-family="Arial, sans-serif" font-size="11" font-weight="500" fill="#EEEDFE">rid-brute-force</text>
<rect x="1578.0" y="344.0" width="174" height="30" rx="6" fill="#D85A30" stroke="#F0997B" stroke-width="0.5"/>
<text x="1665.0" y="359.0" text-anchor="middle" dominant-baseline="central" font-family="Arial, sans-serif" font-size="12" font-weight="500" fill="#FAECE7">valid_domain_users2</text>
<line x1="1899.0" y1="382.0" x2="1899.0" y2="402.0" stroke="#555553" stroke-width="1" marker-end="url(#ar)"/>
<line x1="1899.0" y1="436.0" x2="1899.0" y2="456.0" stroke="#555553" stroke-width="1" marker-end="url(#ar)"/>
<rect x="1812.0" y="238.0" width="174" height="30" rx="6" fill="#D85A30" stroke="#F0997B" stroke-width="0.5"/>
<text x="1899.0" y="253.0" text-anchor="middle" dominant-baseline="central" font-family="Arial, sans-serif" font-size="12" font-weight="500" fill="#FAECE7">valid_domain_users2</text>
<line x1="1899.0" y1="268.0" x2="1899.0" y2="276.0" stroke="#555553" stroke-width="0.5"/>
<rect x="1859.0" y="276.0" width="80" height="30" rx="6" fill="#D4537E" stroke="#ED93B1" stroke-width="0.5"/>
<text x="1899.0" y="291.0" text-anchor="middle" dominant-baseline="central" font-family="Arial, sans-serif" font-size="12" font-weight="500" fill="#FBEAF0">pass1</text>
<line x1="1899.0" y1="306.0" x2="1899.0" y2="314.0" stroke="#555553" stroke-width="0.5"/>
<rect x="1859.0" y="314.0" width="80" height="30" rx="6" fill="#BA7517" stroke="#EF9F27" stroke-width="0.5"/>
<text x="1899.0" y="329.0" text-anchor="middle" dominant-baseline="central" font-family="Arial, sans-serif" font-size="12" font-weight="500" fill="#FAEEDA">pass2</text>
<line x1="1899.0" y1="344.0" x2="1899.0" y2="352.0" stroke="#555553" stroke-width="0.5"/>
<rect x="1859.0" y="352.0" width="80" height="30" rx="6" fill="#639922" stroke="#97C459" stroke-width="0.5"/>
<text x="1899.0" y="367.0" text-anchor="middle" dominant-baseline="central" font-family="Arial, sans-serif" font-size="12" font-weight="500" fill="#EAF3DE">pass3</text>
<ellipse cx="1899.0" cy="420.0" rx="42" ry="16" fill="#7F77DD" stroke="#AFA9EC" stroke-width="0.5"/>
<text x="1899.0" y="420.0" text-anchor="middle" dominant-baseline="central" font-family="Arial, sans-serif" font-size="11" font-weight="500" fill="#EEEDFE">spraying</text>
<rect x="1859.0" y="458.0" width="80" height="30" rx="6" fill="#D4537E" stroke="#ED93B1" stroke-width="0.5"/>
<text x="1899.0" y="473.0" text-anchor="middle" dominant-baseline="central" font-family="Arial, sans-serif" font-size="12" font-weight="500" fill="#FBEAF0">WINRM1</text>
<line x1="2086.0" y1="268.0" x2="2086.0" y2="288.0" stroke="#555553" stroke-width="1" marker-end="url(#ar)"/>
<line x1="2086.0" y1="322.0" x2="2086.0" y2="342.0" stroke="#555553" stroke-width="1" marker-end="url(#ar)"/>
<rect x="2046.0" y="238.0" width="80" height="30" rx="6" fill="#D4537E" stroke="#ED93B1" stroke-width="0.5"/>
<text x="2086.0" y="253.0" text-anchor="middle" dominant-baseline="central" font-family="Arial, sans-serif" font-size="12" font-weight="500" fill="#FBEAF0">WINRM1</text>
<ellipse cx="2086.0" cy="306.0" rx="32" ry="16" fill="#7F77DD" stroke="#AFA9EC" stroke-width="0.5"/>
<text x="2086.0" y="306.0" text-anchor="middle" dominant-baseline="central" font-family="Arial, sans-serif" font-size="11" font-weight="500" fill="#EEEDFE">login</text>
<rect x="2046.0" y="344.0" width="80" height="30" rx="6" fill="#E24B4A" stroke="#F09595" stroke-width="0.5"/>
<text x="2086.0" y="359.0" text-anchor="middle" dominant-baseline="central" font-family="Arial, sans-serif" font-size="12" font-weight="500" fill="#FCEBEB">user1</text>
</svg>