<svg width="876" height="1720" viewBox="0 0 876 1720" xmlns="http://www.w3.org/2000/svg" style="background:#0a0a0a">
<rect width="876" height="1720" fill="#0a0a0a"/>
<defs>
<marker id="ar" viewBox="0 0 10 10" refX="8" refY="5" markerWidth="5" markerHeight="5" orient="auto-start-reverse"><path d="M2 1L8 5L2 9" fill="none" stroke="#555553" stroke-width="1.5" stroke-linecap="round" stroke-linejoin="round"/></marker>
<marker id="ar_port_80" viewBox="0 0 10 10" refX="8" refY="5" markerWidth="5" markerHeight="5" orient="auto-start-reverse"><path d="M2 1L8 5L2 9" fill="none" stroke="#5DCAA5" stroke-width="1.5" stroke-linecap="round" stroke-linejoin="round"/></marker>
<marker id="ar_guest" viewBox="0 0 10 10" refX="8" refY="5" markerWidth="5" markerHeight="5" orient="auto-start-reverse"><path d="M2 1L8 5L2 9" fill="none" stroke="#EF9F27" stroke-width="1.5" stroke-linecap="round" stroke-linejoin="round"/></marker>
<marker id="ar_file1" viewBox="0 0 10 10" refX="8" refY="5" markerWidth="5" markerHeight="5" orient="auto-start-reverse"><path d="M2 1L8 5L2 9" fill="none" stroke="#97C459" stroke-width="1.5" stroke-linecap="round" stroke-linejoin="round"/></marker>
<marker id="ar_MD5" viewBox="0 0 10 10" refX="8" refY="5" markerWidth="5" markerHeight="5" orient="auto-start-reverse"><path d="M2 1L8 5L2 9" fill="none" stroke="#F0997B" stroke-width="1.5" stroke-linecap="round" stroke-linejoin="round"/></marker>
<marker id="ar_pass1" viewBox="0 0 10 10" refX="8" refY="5" markerWidth="5" markerHeight="5" orient="auto-start-reverse"><path d="M2 1L8 5L2 9" fill="none" stroke="#ED93B1" stroke-width="1.5" stroke-linecap="round" stroke-linejoin="round"/></marker>
<marker id="ar_pass2" viewBox="0 0 10 10" refX="8" refY="5" markerWidth="5" markerHeight="5" orient="auto-start-reverse"><path d="M2 1L8 5L2 9" fill="none" stroke="#EF9F27" stroke-width="1.5" stroke-linecap="round" stroke-linejoin="round"/></marker>
<marker id="ar_valid_domain_users1" viewBox="0 0 10 10" refX="8" refY="5" markerWidth="5" markerHeight="5" orient="auto-start-reverse"><path d="M2 1L8 5L2 9" fill="none" stroke="#F09595" stroke-width="1.5" stroke-linecap="round" stroke-linejoin="round"/></marker>
<marker id="ar_valid_creds1" viewBox="0 0 10 10" refX="8" refY="5" markerWidth="5" markerHeight="5" orient="auto-start-reverse"><path d="M2 1L8 5L2 9" fill="none" stroke="#B4B2A9" stroke-width="1.5" stroke-linecap="round" stroke-linejoin="round"/></marker>
<marker id="ar_SMB1" viewBox="0 0 10 10" refX="8" refY="5" markerWidth="5" markerHeight="5" orient="auto-start-reverse"><path d="M2 1L8 5L2 9" fill="none" stroke="#85B7EB" stroke-width="1.5" stroke-linecap="round" stroke-linejoin="round"/></marker>
<marker id="ar_valid_domain_users2" viewBox="0 0 10 10" refX="8" refY="5" markerWidth="5" markerHeight="5" orient="auto-start-reverse"><path d="M2 1L8 5L2 9" fill="none" stroke="#F0997B" stroke-width="1.5" stroke-linecap="round" stroke-linejoin="round"/></marker>
<marker id="ar_WINRM1" viewBox="0 0 10 10" refX="8" refY="5" markerWidth="5" markerHeight="5" orient="auto-start-reverse"><path d="M2 1L8 5L2 9" fill="none" stroke="#ED93B1" stroke-width="1.5" stroke-linecap="round" stroke-linejoin="round"/></marker>
<marker id="ar_user1" viewBox="0 0 10 10" refX="8" refY="5" markerWidth="5" markerHeight="5" orient="auto-start-reverse"><path d="M2 1L8 5L2 9" fill="none" stroke="#F09595" stroke-width="1.5" stroke-linecap="round" stroke-linejoin="round"/></marker>
<marker id="ar_user2" viewBox="0 0 10 10" refX="8" refY="5" markerWidth="5" markerHeight="5" orient="auto-start-reverse"><path d="M2 1L8 5L2 9" fill="none" stroke="#B4B2A9" stroke-width="1.5" stroke-linecap="round" stroke-linejoin="round"/></marker>
<marker id="ar_user3" viewBox="0 0 10 10" refX="8" refY="5" markerWidth="5" markerHeight="5" orient="auto-start-reverse"><path d="M2 1L8 5L2 9" fill="none" stroke="#85B7EB" stroke-width="1.5" stroke-linecap="round" stroke-linejoin="round"/></marker>
<marker id="ar_hashes" viewBox="0 0 10 10" refX="8" refY="5" markerWidth="5" markerHeight="5" orient="auto-start-reverse"><path d="M2 1L8 5L2 9" fill="none" stroke="#5DCAA5" stroke-width="1.5" stroke-linecap="round" stroke-linejoin="round"/></marker>
</defs>
<path d="M771.0,55.0 C811.0,55.0 811.0,212.0 299.0,212.0" fill="none" stroke="#5DCAA5" stroke-width="1.5" stroke-dasharray="5 3" marker-end="url(#ar_port_80)"/>
<path d="M769.0,212.0 C809.0,212.0 809.0,312.0 301.0,312.0" fill="none" stroke="#EF9F27" stroke-width="1.5" stroke-dasharray="5 3" marker-end="url(#ar_guest)"/>
<path d="M769.0,293.0 C809.0,293.0 809.0,468.0 301.0,468.0" fill="none" stroke="#97C459" stroke-width="1.5" stroke-dasharray="5 3" marker-end="url(#ar_file1)"/>
<path d="M769.0,525.0 C809.0,525.0 809.0,606.0 301.0,606.0" fill="none" stroke="#F0997B" stroke-width="1.5" stroke-dasharray="5 3" marker-end="url(#ar_MD5)"/>
<path d="M769.0,606.0 C809.0,606.0 809.0,687.0 301.0,687.0" fill="none" stroke="#ED93B1" stroke-width="1.5" stroke-dasharray="5 3" marker-end="url(#ar_pass1)"/>
<path d="M769.0,687.0 C809.0,687.0 809.0,805.0 301.0,805.0" fill="none" stroke="#ED93B1" stroke-width="1.5" stroke-dasharray="5 3" marker-end="url(#ar_pass1)"/>
<path d="M769.0,725.0 C809.0,725.0 809.0,843.0 301.0,843.0" fill="none" stroke="#EF9F27" stroke-width="1.5" stroke-dasharray="5 3" marker-end="url(#ar_pass2)"/>
<path d="M816.0,900.0 C856.0,900.0 856.0,1075.0 254.0,1075.0" fill="none" stroke="#F09595" stroke-width="1.5" stroke-dasharray="5 3" marker-end="url(#ar_valid_domain_users1)"/>
<path d="M790.0,1132.0 C830.0,1132.0 830.0,1288.0 280.0,1288.0" fill="none" stroke="#B4B2A9" stroke-width="1.5" stroke-dasharray="5 3" marker-end="url(#ar_valid_creds1)"/>
<path d="M769.0,1269.0 C809.0,1269.0 809.0,1388.0 301.0,1388.0" fill="none" stroke="#85B7EB" stroke-width="1.5" stroke-dasharray="5 3" marker-end="url(#ar_SMB1)"/>
<path d="M816.0,1388.0 C856.0,1388.0 856.0,1469.0 254.0,1469.0" fill="none" stroke="#F0997B" stroke-width="1.5" stroke-dasharray="5 3" marker-end="url(#ar_valid_domain_users2)"/>
<path d="M769.0,1526.0 C809.0,1526.0 809.0,1664.0 301.0,1664.0" fill="none" stroke="#ED93B1" stroke-width="1.5" stroke-dasharray="5 3" marker-end="url(#ar_WINRM1)"/>
<path d="M258.0,331.0 L69.0,331.0 L69.0,919.0 L305.0,919.0" fill="none" stroke="#F09595" stroke-width="1.2" stroke-dasharray="6 3" marker-end="url(#ar_user1)"/>
<text x="66.0" y="625.0" text-anchor="end" font-family="Arial, sans-serif" font-size="10" fill="#F09595">user1</text>
<path d="M258.0,411.0 L87.0,411.0 L87.0,957.0 L305.0,957.0" fill="none" stroke="#B4B2A9" stroke-width="1.2" stroke-dasharray="6 3" marker-end="url(#ar_user2)"/>
<text x="84.0" y="684.0" text-anchor="end" font-family="Arial, sans-serif" font-size="10" fill="#B4B2A9">user2</text>
<path d="M258.0,449.0 L105.0,449.0 L105.0,995.0 L305.0,995.0" fill="none" stroke="#85B7EB" stroke-width="1.2" stroke-dasharray="6 3" marker-end="url(#ar_user3)"/>
<text x="102.0" y="722.0" text-anchor="end" font-family="Arial, sans-serif" font-size="10" fill="#85B7EB">user3</text>
<path d="M258.0,487.0 L123.0,487.0 L123.0,725.0 L305.0,725.0" fill="none" stroke="#5DCAA5" stroke-width="1.2" stroke-dasharray="6 3" marker-end="url(#ar_hashes)"/>
<text x="120.0" y="606.0" text-anchor="end" font-family="Arial, sans-serif" font-size="10" fill="#5DCAA5">hashes</text>
<path d="M258.0,606.0 L141.0,606.0 L141.0,805.0 L305.0,805.0" fill="none" stroke="#ED93B1" stroke-width="1.2" stroke-dasharray="6 3" marker-end="url(#ar_pass1)"/>
<text x="138.0" y="705.5" text-anchor="end" font-family="Arial, sans-serif" font-size="10" fill="#ED93B1">pass1</text>
<path d="M258.0,606.0 L159.0,606.0 L159.0,1113.0 L305.0,1113.0" fill="none" stroke="#ED93B1" stroke-width="1.2" stroke-dasharray="6 3" marker-end="url(#ar_pass1)"/>
<text x="156.0" y="859.5" text-anchor="end" font-family="Arial, sans-serif" font-size="10" fill="#ED93B1">pass1</text>
<path d="M258.0,606.0 L177.0,606.0 L177.0,1507.0 L305.0,1507.0" fill="none" stroke="#ED93B1" stroke-width="1.2" stroke-dasharray="6 3" marker-end="url(#ar_pass1)"/>
<text x="174.0" y="1056.5" text-anchor="end" font-family="Arial, sans-serif" font-size="10" fill="#ED93B1">pass1</text>
<path d="M258.0,687.0 L195.0,687.0 L195.0,1113.0 L305.0,1113.0" fill="none" stroke="#ED93B1" stroke-width="1.2" stroke-dasharray="6 3" marker-end="url(#ar_pass1)"/>
<text x="192.0" y="900.0" text-anchor="end" font-family="Arial, sans-serif" font-size="10" fill="#ED93B1">pass1</text>
<path d="M258.0,687.0 L213.0,687.0 L213.0,1507.0 L305.0,1507.0" fill="none" stroke="#ED93B1" stroke-width="1.2" stroke-dasharray="6 3" marker-end="url(#ar_pass1)"/>
<text x="210.0" y="1097.0" text-anchor="end" font-family="Arial, sans-serif" font-size="10" fill="#ED93B1">pass1</text>
<path d="M258.0,725.0 L231.0,725.0 L231.0,1151.0 L305.0,1151.0" fill="none" stroke="#EF9F27" stroke-width="1.2" stroke-dasharray="6 3" marker-end="url(#ar_pass2)"/>
<text x="228.0" y="938.0" text-anchor="end" font-family="Arial, sans-serif" font-size="10" fill="#EF9F27">pass2</text>
<path d="M258.0,725.0 L249.0,725.0 L249.0,1545.0 L305.0,1545.0" fill="none" stroke="#EF9F27" stroke-width="1.2" stroke-dasharray="6 3" marker-end="url(#ar_pass2)"/>
<text x="246.0" y="1135.0" text-anchor="end" font-family="Arial, sans-serif" font-size="10" fill="#EF9F27">pass2</text>
<line x1="432.0" y1="93.0" x2="505.0" y2="93.0" stroke="#555553" stroke-width="1" marker-end="url(#ar)"/>
<line x1="567.0" y1="93.0" x2="640.0" y2="93.0" stroke="#555553" stroke-width="1" marker-end="url(#ar)"/>
<rect x="305.0" y="78.0" width="80" height="30" rx="6" fill="#378ADD" stroke="#85B7EB" stroke-width="0.5"/>
<text x="345.0" y="93.0" text-anchor="middle" dominant-baseline="central" font-family="Arial, sans-serif" font-size="12" font-weight="500" fill="#E6F1FB">target</text>
<ellipse cx="537.0" cy="93.0" rx="30" ry="16" fill="#7F77DD" stroke="#AFA9EC" stroke-width="0.5"/>
<text x="537.0" y="93.0" text-anchor="middle" dominant-baseline="central" font-family="Arial, sans-serif" font-size="11" font-weight="500" fill="#EEEDFE">nmap</text>
<rect x="687.0" y="40.0" width="84" height="30" rx="6" fill="#1D9E75" stroke="#5DCAA5" stroke-width="0.5"/>
<text x="729.0" y="55.0" text-anchor="middle" dominant-baseline="central" font-family="Arial, sans-serif" font-size="12" font-weight="500" fill="#E1F5EE">port 80</text>
<line x1="729.0" y1="70.0" x2="729.0" y2="78.0" stroke="#555553" stroke-width="0.5"/>
<rect x="683.0" y="78.0" width="92" height="30" rx="6" fill="#D85A30" stroke="#F0997B" stroke-width="0.5"/>
<text x="729.0" y="93.0" text-anchor="middle" dominant-baseline="central" font-family="Arial, sans-serif" font-size="12" font-weight="500" fill="#FAECE7">port 135</text>
<line x1="729.0" y1="108.0" x2="729.0" y2="116.0" stroke="#555553" stroke-width="0.5"/>
<rect x="683.0" y="116.0" width="92" height="30" rx="6" fill="#D4537E" stroke="#ED93B1" stroke-width="0.5"/>
<text x="729.0" y="131.0" text-anchor="middle" dominant-baseline="central" font-family="Arial, sans-serif" font-size="12" font-weight="500" fill="#FBEAF0">port 445</text>
<line x1="60.0" y1="171.0" x2="816.0" y2="171.0" stroke="#555553" stroke-width="0.3" stroke-dasharray="2 6"/>
<line x1="432.0" y1="212.0" x2="503.0" y2="212.0" stroke="#555553" stroke-width="1" marker-end="url(#ar)"/>
<line x1="569.0" y1="212.0" x2="640.0" y2="212.0" stroke="#555553" stroke-width="1" marker-end="url(#ar)"/>
<rect x="303.0" y="197.0" width="84" height="30" rx="6" fill="#1D9E75" stroke="#5DCAA5" stroke-width="0.5"/>
<text x="345.0" y="212.0" text-anchor="middle" dominant-baseline="central" font-family="Arial, sans-serif" font-size="12" font-weight="500" fill="#E1F5EE">port 80</text>
<ellipse cx="537.0" cy="212.0" rx="32" ry="16" fill="#7F77DD" stroke="#AFA9EC" stroke-width="0.5"/>
<text x="537.0" y="212.0" text-anchor="middle" dominant-baseline="central" font-family="Arial, sans-serif" font-size="11" font-weight="500" fill="#EEEDFE">login</text>
<rect x="689.0" y="197.0" width="80" height="30" rx="6" fill="#BA7517" stroke="#EF9F27" stroke-width="0.5"/>
<text x="729.0" y="212.0" text-anchor="middle" dominant-baseline="central" font-family="Arial, sans-serif" font-size="12" font-weight="500" fill="#FAEEDA">guest</text>
<line x1="60.0" y1="253.0" x2="816.0" y2="253.0" stroke="#555553" stroke-width="0.3" stroke-dasharray="2 6"/>
<line x1="432.0" y1="312.0" x2="503.0" y2="312.0" stroke="#555553" stroke-width="1" marker-end="url(#ar)"/>
<line x1="569.0" y1="312.0" x2="640.0" y2="312.0" stroke="#555553" stroke-width="1" marker-end="url(#ar)"/>
<rect x="305.0" y="297.0" width="80" height="30" rx="6" fill="#BA7517" stroke="#EF9F27" stroke-width="0.5"/>
<text x="345.0" y="312.0" text-anchor="middle" dominant-baseline="central" font-family="Arial, sans-serif" font-size="12" font-weight="500" fill="#FAEEDA">guest</text>
<ellipse cx="537.0" cy="312.0" rx="32" ry="16" fill="#7F77DD" stroke="#AFA9EC" stroke-width="0.5"/>
<text x="537.0" y="312.0" text-anchor="middle" dominant-baseline="central" font-family="Arial, sans-serif" font-size="11" font-weight="500" fill="#EEEDFE">found</text>
<rect x="689.0" y="278.0" width="80" height="30" rx="6" fill="#639922" stroke="#97C459" stroke-width="0.5"/>
<text x="729.0" y="293.0" text-anchor="middle" dominant-baseline="central" font-family="Arial, sans-serif" font-size="12" font-weight="500" fill="#EAF3DE">file1</text>
<line x1="729.0" y1="308.0" x2="729.0" y2="316.0" stroke="#555553" stroke-width="0.5"/>
<rect x="689.0" y="316.0" width="80" height="30" rx="6" fill="#E24B4A" stroke="#F09595" stroke-width="0.5"/>
<text x="729.0" y="331.0" text-anchor="middle" dominant-baseline="central" font-family="Arial, sans-serif" font-size="12" font-weight="500" fill="#FCEBEB">user1</text>
<line x1="60.0" y1="371.0" x2="816.0" y2="371.0" stroke="#555553" stroke-width="0.3" stroke-dasharray="2 6"/>
<line x1="432.0" y1="468.0" x2="493.0" y2="468.0" stroke="#555553" stroke-width="1" marker-end="url(#ar)"/>
<line x1="579.0" y1="468.0" x2="640.0" y2="468.0" stroke="#555553" stroke-width="1" marker-end="url(#ar)"/>
<rect x="305.0" y="453.0" width="80" height="30" rx="6" fill="#639922" stroke="#97C459" stroke-width="0.5"/>
<text x="345.0" y="468.0" text-anchor="middle" dominant-baseline="central" font-family="Arial, sans-serif" font-size="12" font-weight="500" fill="#EAF3DE">file1</text>
<ellipse cx="537.0" cy="468.0" rx="42" ry="16" fill="#7F77DD" stroke="#AFA9EC" stroke-width="0.5"/>
<text x="537.0" y="468.0" text-anchor="middle" dominant-baseline="central" font-family="Arial, sans-serif" font-size="11" font-weight="500" fill="#EEEDFE">contains</text>
<rect x="689.0" y="396.0" width="80" height="30" rx="6" fill="#888780" stroke="#B4B2A9" stroke-width="0.5"/>
<text x="729.0" y="411.0" text-anchor="middle" dominant-baseline="central" font-family="Arial, sans-serif" font-size="12" font-weight="500" fill="#F1EFE8">user2</text>
<line x1="729.0" y1="426.0" x2="729.0" y2="434.0" stroke="#555553" stroke-width="0.5"/>
<rect x="689.0" y="434.0" width="80" height="30" rx="6" fill="#378ADD" stroke="#85B7EB" stroke-width="0.5"/>
<text x="729.0" y="449.0" text-anchor="middle" dominant-baseline="central" font-family="Arial, sans-serif" font-size="12" font-weight="500" fill="#E6F1FB">user3</text>
<line x1="729.0" y1="464.0" x2="729.0" y2="472.0" stroke="#555553" stroke-width="0.5"/>
<rect x="689.0" y="472.0" width="80" height="30" rx="6" fill="#1D9E75" stroke="#5DCAA5" stroke-width="0.5"/>
<text x="729.0" y="487.0" text-anchor="middle" dominant-baseline="central" font-family="Arial, sans-serif" font-size="12" font-weight="500" fill="#E1F5EE">hashes</text>
<line x1="729.0" y1="502.0" x2="729.0" y2="510.0" stroke="#555553" stroke-width="0.5"/>
<rect x="689.0" y="510.0" width="80" height="30" rx="6" fill="#D85A30" stroke="#F0997B" stroke-width="0.5"/>
<text x="729.0" y="525.0" text-anchor="middle" dominant-baseline="central" font-family="Arial, sans-serif" font-size="12" font-weight="500" fill="#FAECE7">MD5</text>
<line x1="60.0" y1="565.0" x2="816.0" y2="565.0" stroke="#555553" stroke-width="0.3" stroke-dasharray="2 6"/>
<line x1="432.0" y1="606.0" x2="503.0" y2="606.0" stroke="#555553" stroke-width="1" marker-end="url(#ar)"/>
<line x1="569.0" y1="606.0" x2="640.0" y2="606.0" stroke="#555553" stroke-width="1" marker-end="url(#ar)"/>
<rect x="305.0" y="591.0" width="80" height="30" rx="6" fill="#D85A30" stroke="#F0997B" stroke-width="0.5"/>
<text x="345.0" y="606.0" text-anchor="middle" dominant-baseline="central" font-family="Arial, sans-serif" font-size="12" font-weight="500" fill="#FAECE7">MD5</text>
<ellipse cx="537.0" cy="606.0" rx="32" ry="16" fill="#7F77DD" stroke="#AFA9EC" stroke-width="0.5"/>
<text x="537.0" y="606.0" text-anchor="middle" dominant-baseline="central" font-family="Arial, sans-serif" font-size="11" font-weight="500" fill="#EEEDFE">crack</text>
<rect x="689.0" y="591.0" width="80" height="30" rx="6" fill="#D4537E" stroke="#ED93B1" stroke-width="0.5"/>
<text x="729.0" y="606.0" text-anchor="middle" dominant-baseline="central" font-family="Arial, sans-serif" font-size="12" font-weight="500" fill="#FBEAF0">pass1</text>
<line x1="60.0" y1="647.0" x2="816.0" y2="647.0" stroke="#555553" stroke-width="0.3" stroke-dasharray="2 6"/>
<line x1="432.0" y1="706.0" x2="496.0" y2="706.0" stroke="#555553" stroke-width="1" marker-end="url(#ar)"/>
<line x1="576.0" y1="706.0" x2="640.0" y2="706.0" stroke="#555553" stroke-width="1" marker-end="url(#ar)"/>
<rect x="305.0" y="672.0" width="80" height="30" rx="6" fill="#D4537E" stroke="#ED93B1" stroke-width="0.5"/>
<text x="345.0" y="687.0" text-anchor="middle" dominant-baseline="central" font-family="Arial, sans-serif" font-size="12" font-weight="500" fill="#FBEAF0">pass1</text>
<line x1="345.0" y1="702.0" x2="345.0" y2="710.0" stroke="#555553" stroke-width="0.5"/>
<rect x="305.0" y="710.0" width="80" height="30" rx="6" fill="#1D9E75" stroke="#5DCAA5" stroke-width="0.5"/>
<text x="345.0" y="725.0" text-anchor="middle" dominant-baseline="central" font-family="Arial, sans-serif" font-size="12" font-weight="500" fill="#E1F5EE">hashes</text>
<ellipse cx="537.0" cy="706.0" rx="39" ry="16" fill="#7F77DD" stroke="#AFA9EC" stroke-width="0.5"/>
<text x="537.0" y="706.0" text-anchor="middle" dominant-baseline="central" font-family="Arial, sans-serif" font-size="11" font-weight="500" fill="#EEEDFE">decrypt</text>
<rect x="689.0" y="672.0" width="80" height="30" rx="6" fill="#D4537E" stroke="#ED93B1" stroke-width="0.5"/>
<text x="729.0" y="687.0" text-anchor="middle" dominant-baseline="central" font-family="Arial, sans-serif" font-size="12" font-weight="500" fill="#FBEAF0">pass1</text>
<line x1="729.0" y1="702.0" x2="729.0" y2="710.0" stroke="#555553" stroke-width="0.5"/>
<rect x="689.0" y="710.0" width="80" height="30" rx="6" fill="#BA7517" stroke="#EF9F27" stroke-width="0.5"/>
<text x="729.0" y="725.0" text-anchor="middle" dominant-baseline="central" font-family="Arial, sans-serif" font-size="12" font-weight="500" fill="#FAEEDA">pass2</text>
<line x1="60.0" y1="765.0" x2="816.0" y2="765.0" stroke="#555553" stroke-width="0.3" stroke-dasharray="2 6"/>
<line x1="432.0" y1="900.0" x2="467.0" y2="900.0" stroke="#555553" stroke-width="1" marker-end="url(#ar)"/>
<line x1="605.0" y1="900.0" x2="640.0" y2="900.0" stroke="#555553" stroke-width="1" marker-end="url(#ar)"/>
<rect x="305.0" y="790.0" width="80" height="30" rx="6" fill="#D4537E" stroke="#ED93B1" stroke-width="0.5"/>
<text x="345.0" y="805.0" text-anchor="middle" dominant-baseline="central" font-family="Arial, sans-serif" font-size="12" font-weight="500" fill="#FBEAF0">pass1</text>
<line x1="345.0" y1="820.0" x2="345.0" y2="828.0" stroke="#555553" stroke-width="0.5"/>
<rect x="305.0" y="828.0" width="80" height="30" rx="6" fill="#BA7517" stroke="#EF9F27" stroke-width="0.5"/>
<text x="345.0" y="843.0" text-anchor="middle" dominant-baseline="central" font-family="Arial, sans-serif" font-size="12" font-weight="500" fill="#FAEEDA">pass2</text>
<line x1="345.0" y1="858.0" x2="345.0" y2="866.0" stroke="#555553" stroke-width="0.5"/>
<rect x="305.0" y="866.0" width="80" height="30" rx="6" fill="#639922" stroke="#97C459" stroke-width="0.5"/>
<text x="345.0" y="881.0" text-anchor="middle" dominant-baseline="central" font-family="Arial, sans-serif" font-size="12" font-weight="500" fill="#EAF3DE">pass3</text>
<line x1="345.0" y1="896.0" x2="345.0" y2="904.0" stroke="#555553" stroke-width="0.5"/>
<rect x="305.0" y="904.0" width="80" height="30" rx="6" fill="#E24B4A" stroke="#F09595" stroke-width="0.5"/>
<text x="345.0" y="919.0" text-anchor="middle" dominant-baseline="central" font-family="Arial, sans-serif" font-size="12" font-weight="500" fill="#FCEBEB">user1</text>
<line x1="345.0" y1="934.0" x2="345.0" y2="942.0" stroke="#555553" stroke-width="0.5"/>
<rect x="305.0" y="942.0" width="80" height="30" rx="6" fill="#888780" stroke="#B4B2A9" stroke-width="0.5"/>
<text x="345.0" y="957.0" text-anchor="middle" dominant-baseline="central" font-family="Arial, sans-serif" font-size="12" font-weight="500" fill="#F1EFE8">user2</text>
<line x1="345.0" y1="972.0" x2="345.0" y2="980.0" stroke="#555553" stroke-width="0.5"/>
<rect x="305.0" y="980.0" width="80" height="30" rx="6" fill="#378ADD" stroke="#85B7EB" stroke-width="0.5"/>
<text x="345.0" y="995.0" text-anchor="middle" dominant-baseline="central" font-family="Arial, sans-serif" font-size="12" font-weight="500" fill="#E6F1FB">user3</text>
<ellipse cx="537.0" cy="900.0" rx="68" ry="16" fill="#7F77DD" stroke="#AFA9EC" stroke-width="0.5"/>
<text x="537.0" y="900.0" text-anchor="middle" dominant-baseline="central" font-family="Arial, sans-serif" font-size="11" font-weight="500" fill="#EEEDFE">rid-brute-force</text>
<rect x="642.0" y="885.0" width="174" height="30" rx="6" fill="#E24B4A" stroke="#F09595" stroke-width="0.5"/>
<text x="729.0" y="900.0" text-anchor="middle" dominant-baseline="central" font-family="Arial, sans-serif" font-size="12" font-weight="500" fill="#FCEBEB">valid_domain_users1</text>
<line x1="60.0" y1="1035.0" x2="816.0" y2="1035.0" stroke="#555553" stroke-width="0.3" stroke-dasharray="2 6"/>
<line x1="432.0" y1="1132.0" x2="493.0" y2="1132.0" stroke="#555553" stroke-width="1" marker-end="url(#ar)"/>
<line x1="579.0" y1="1132.0" x2="640.0" y2="1132.0" stroke="#555553" stroke-width="1" marker-end="url(#ar)"/>
<rect x="258.0" y="1060.0" width="174" height="30" rx="6" fill="#E24B4A" stroke="#F09595" stroke-width="0.5"/>
<text x="345.0" y="1075.0" text-anchor="middle" dominant-baseline="central" font-family="Arial, sans-serif" font-size="12" font-weight="500" fill="#FCEBEB">valid_domain_users1</text>
<line x1="345.0" y1="1090.0" x2="345.0" y2="1098.0" stroke="#555553" stroke-width="0.5"/>
<rect x="305.0" y="1098.0" width="80" height="30" rx="6" fill="#D4537E" stroke="#ED93B1" stroke-width="0.5"/>
<text x="345.0" y="1113.0" text-anchor="middle" dominant-baseline="central" font-family="Arial, sans-serif" font-size="12" font-weight="500" fill="#FBEAF0">pass1</text>
<line x1="345.0" y1="1128.0" x2="345.0" y2="1136.0" stroke="#555553" stroke-width="0.5"/>
<rect x="305.0" y="1136.0" width="80" height="30" rx="6" fill="#BA7517" stroke="#EF9F27" stroke-width="0.5"/>
<text x="345.0" y="1151.0" text-anchor="middle" dominant-baseline="central" font-family="Arial, sans-serif" font-size="12" font-weight="500" fill="#FAEEDA">pass2</text>
<line x1="345.0" y1="1166.0" x2="345.0" y2="1174.0" stroke="#555553" stroke-width="0.5"/>
<rect x="305.0" y="1174.0" width="80" height="30" rx="6" fill="#639922" stroke="#97C459" stroke-width="0.5"/>
<text x="345.0" y="1189.0" text-anchor="middle" dominant-baseline="central" font-family="Arial, sans-serif" font-size="12" font-weight="500" fill="#EAF3DE">pass3</text>
<ellipse cx="537.0" cy="1132.0" rx="42" ry="16" fill="#7F77DD" stroke="#AFA9EC" stroke-width="0.5"/>
<text x="537.0" y="1132.0" text-anchor="middle" dominant-baseline="central" font-family="Arial, sans-serif" font-size="11" font-weight="500" fill="#EEEDFE">spraying</text>
<rect x="668.0" y="1117.0" width="122" height="30" rx="6" fill="#888780" stroke="#B4B2A9" stroke-width="0.5"/>
<text x="729.0" y="1132.0" text-anchor="middle" dominant-baseline="central" font-family="Arial, sans-serif" font-size="12" font-weight="500" fill="#F1EFE8">valid_creds1</text>
<line x1="60.0" y1="1229.0" x2="816.0" y2="1229.0" stroke="#555553" stroke-width="0.3" stroke-dasharray="2 6"/>
<line x1="432.0" y1="1288.0" x2="460.0" y2="1288.0" stroke="#555553" stroke-width="1" marker-end="url(#ar)"/>
<line x1="612.0" y1="1288.0" x2="640.0" y2="1288.0" stroke="#555553" stroke-width="1" marker-end="url(#ar)"/>
<rect x="284.0" y="1273.0" width="122" height="30" rx="6" fill="#888780" stroke="#B4B2A9" stroke-width="0.5"/>
<text x="345.0" y="1288.0" text-anchor="middle" dominant-baseline="central" font-family="Arial, sans-serif" font-size="12" font-weight="500" fill="#F1EFE8">valid_creds1</text>
<ellipse cx="537.0" cy="1288.0" rx="75" ry="16" fill="#7F77DD" stroke="#AFA9EC" stroke-width="0.5"/>
<text x="537.0" y="1288.0" text-anchor="middle" dominant-baseline="central" font-family="Arial, sans-serif" font-size="11" font-weight="500" fill="#EEEDFE">creds_vs_services</text>
<rect x="689.0" y="1254.0" width="80" height="30" rx="6" fill="#378ADD" stroke="#85B7EB" stroke-width="0.5"/>
<text x="729.0" y="1269.0" text-anchor="middle" dominant-baseline="central" font-family="Arial, sans-serif" font-size="12" font-weight="500" fill="#E6F1FB">SMB1</text>
<line x1="729.0" y1="1284.0" x2="729.0" y2="1292.0" stroke="#555553" stroke-width="0.5"/>
<rect x="689.0" y="1292.0" width="80" height="30" rx="6" fill="#1D9E75" stroke="#5DCAA5" stroke-width="0.5"/>
<text x="729.0" y="1307.0" text-anchor="middle" dominant-baseline="central" font-family="Arial, sans-serif" font-size="12" font-weight="500" fill="#E1F5EE">RPC1</text>
<line x1="60.0" y1="1347.0" x2="816.0" y2="1347.0" stroke="#555553" stroke-width="0.3" stroke-dasharray="2 6"/>
<line x1="432.0" y1="1388.0" x2="467.0" y2="1388.0" stroke="#555553" stroke-width="1" marker-end="url(#ar)"/>
<line x1="605.0" y1="1388.0" x2="640.0" y2="1388.0" stroke="#555553" stroke-width="1" marker-end="url(#ar)"/>
<rect x="305.0" y="1373.0" width="80" height="30" rx="6" fill="#378ADD" stroke="#85B7EB" stroke-width="0.5"/>
<text x="345.0" y="1388.0" text-anchor="middle" dominant-baseline="central" font-family="Arial, sans-serif" font-size="12" font-weight="500" fill="#E6F1FB">SMB1</text>
<ellipse cx="537.0" cy="1388.0" rx="68" ry="16" fill="#7F77DD" stroke="#AFA9EC" stroke-width="0.5"/>
<text x="537.0" y="1388.0" text-anchor="middle" dominant-baseline="central" font-family="Arial, sans-serif" font-size="11" font-weight="500" fill="#EEEDFE">rid-brute-force</text>
<rect x="642.0" y="1373.0" width="174" height="30" rx="6" fill="#D85A30" stroke="#F0997B" stroke-width="0.5"/>
<text x="729.0" y="1388.0" text-anchor="middle" dominant-baseline="central" font-family="Arial, sans-serif" font-size="12" font-weight="500" fill="#FAECE7">valid_domain_users2</text>
<line x1="60.0" y1="1429.0" x2="816.0" y2="1429.0" stroke="#555553" stroke-width="0.3" stroke-dasharray="2 6"/>
<line x1="432.0" y1="1526.0" x2="493.0" y2="1526.0" stroke="#555553" stroke-width="1" marker-end="url(#ar)"/>
<line x1="579.0" y1="1526.0" x2="640.0" y2="1526.0" stroke="#555553" stroke-width="1" marker-end="url(#ar)"/>
<rect x="258.0" y="1454.0" width="174" height="30" rx="6" fill="#D85A30" stroke="#F0997B" stroke-width="0.5"/>
<text x="345.0" y="1469.0" text-anchor="middle" dominant-baseline="central" font-family="Arial, sans-serif" font-size="12" font-weight="500" fill="#FAECE7">valid_domain_users2</text>
<line x1="345.0" y1="1484.0" x2="345.0" y2="1492.0" stroke="#555553" stroke-width="0.5"/>
<rect x="305.0" y="1492.0" width="80" height="30" rx="6" fill="#D4537E" stroke="#ED93B1" stroke-width="0.5"/>
<text x="345.0" y="1507.0" text-anchor="middle" dominant-baseline="central" font-family="Arial, sans-serif" font-size="12" font-weight="500" fill="#FBEAF0">pass1</text>
<line x1="345.0" y1="1522.0" x2="345.0" y2="1530.0" stroke="#555553" stroke-width="0.5"/>
<rect x="305.0" y="1530.0" width="80" height="30" rx="6" fill="#BA7517" stroke="#EF9F27" stroke-width="0.5"/>
<text x="345.0" y="1545.0" text-anchor="middle" dominant-baseline="central" font-family="Arial, sans-serif" font-size="12" font-weight="500" fill="#FAEEDA">pass2</text>
<line x1="345.0" y1="1560.0" x2="345.0" y2="1568.0" stroke="#555553" stroke-width="0.5"/>
<rect x="305.0" y="1568.0" width="80" height="30" rx="6" fill="#639922" stroke="#97C459" stroke-width="0.5"/>
<text x="345.0" y="1583.0" text-anchor="middle" dominant-baseline="central" font-family="Arial, sans-serif" font-size="12" font-weight="500" fill="#EAF3DE">pass3</text>
<ellipse cx="537.0" cy="1526.0" rx="42" ry="16" fill="#7F77DD" stroke="#AFA9EC" stroke-width="0.5"/>
<text x="537.0" y="1526.0" text-anchor="middle" dominant-baseline="central" font-family="Arial, sans-serif" font-size="11" font-weight="500" fill="#EEEDFE">spraying</text>
<rect x="689.0" y="1511.0" width="80" height="30" rx="6" fill="#D4537E" stroke="#ED93B1" stroke-width="0.5"/>
<text x="729.0" y="1526.0" text-anchor="middle" dominant-baseline="central" font-family="Arial, sans-serif" font-size="12" font-weight="500" fill="#FBEAF0">WINRM1</text>
<line x1="60.0" y1="1623.0" x2="816.0" y2="1623.0" stroke="#555553" stroke-width="0.3" stroke-dasharray="2 6"/>
<line x1="432.0" y1="1664.0" x2="503.0" y2="1664.0" stroke="#555553" stroke-width="1" marker-end="url(#ar)"/>
<line x1="569.0" y1="1664.0" x2="640.0" y2="1664.0" stroke="#555553" stroke-width="1" marker-end="url(#ar)"/>
<rect x="305.0" y="1649.0" width="80" height="30" rx="6" fill="#D4537E" stroke="#ED93B1" stroke-width="0.5"/>
<text x="345.0" y="1664.0" text-anchor="middle" dominant-baseline="central" font-family="Arial, sans-serif" font-size="12" font-weight="500" fill="#FBEAF0">WINRM1</text>
<ellipse cx="537.0" cy="1664.0" rx="32" ry="16" fill="#7F77DD" stroke="#AFA9EC" stroke-width="0.5"/>
<text x="537.0" y="1664.0" text-anchor="middle" dominant-baseline="central" font-family="Arial, sans-serif" font-size="11" font-weight="500" fill="#EEEDFE">login</text>
<rect x="689.0" y="1649.0" width="80" height="30" rx="6" fill="#E24B4A" stroke="#F09595" stroke-width="0.5"/>
<text x="729.0" y="1664.0" text-anchor="middle" dominant-baseline="central" font-family="Arial, sans-serif" font-size="12" font-weight="500" fill="#FCEBEB">user1</text>
</svg>