<svg width="1638" height="736" viewBox="0 0 1638 736" xmlns="http://www.w3.org/2000/svg" style="background:#0a0a0a">
<rect width="1638" height="736" fill="#0a0a0a"/>
<defs>
<marker id="ar" viewBox="0 0 10 10" refX="8" refY="5" markerWidth="5" markerHeight="5" orient="auto-start-reverse"><path d="M2 1L8 5L2 9" fill="none" stroke="#555553" stroke-width="1.5" stroke-linecap="round" stroke-linejoin="round"/></marker>
<marker id="ar_port_80" viewBox="0 0 10 10" refX="8" refY="5" markerWidth="5" markerHeight="5" orient="auto-start-reverse"><path d="M2 1L8 5L2 9" fill="none" stroke="#5DCAA5" stroke-width="1.5" stroke-linecap="round" stroke-linejoin="round"/></marker>
<marker id="ar_guest" viewBox="0 0 10 10" refX="8" refY="5" markerWidth="5" markerHeight="5" orient="auto-start-reverse"><path d="M2 1L8 5L2 9" fill="none" stroke="#EF9F27" stroke-width="1.5" stroke-linecap="round" stroke-linejoin="round"/></marker>
<marker id="ar_file1" viewBox="0 0 10 10" refX="8" refY="5" markerWidth="5" markerHeight="5" orient="auto-start-reverse"><path d="M2 1L8 5L2 9" fill="none" stroke="#97C459" stroke-width="1.5" stroke-linecap="round" stroke-linejoin="round"/></marker>
<marker id="ar_MD5" viewBox="0 0 10 10" refX="8" refY="5" markerWidth="5" markerHeight="5" orient="auto-start-reverse"><path d="M2 1L8 5L2 9" fill="none" stroke="#F0997B" stroke-width="1.5" stroke-linecap="round" stroke-linejoin="round"/></marker>
<marker id="ar_pass1" viewBox="0 0 10 10" refX="8" refY="5" markerWidth="5" markerHeight="5" orient="auto-start-reverse"><path d="M2 1L8 5L2 9" fill="none" stroke="#ED93B1" stroke-width="1.5" stroke-linecap="round" stroke-linejoin="round"/></marker>
<marker id="ar_pass2" viewBox="0 0 10 10" refX="8" refY="5" markerWidth="5" markerHeight="5" orient="auto-start-reverse"><path d="M2 1L8 5L2 9" fill="none" stroke="#EF9F27" stroke-width="1.5" stroke-linecap="round" stroke-linejoin="round"/></marker>
<marker id="ar_valid_domain_users1" viewBox="0 0 10 10" refX="8" refY="5" markerWidth="5" markerHeight="5" orient="auto-start-reverse"><path d="M2 1L8 5L2 9" fill="none" stroke="#F09595" stroke-width="1.5" stroke-linecap="round" stroke-linejoin="round"/></marker>
<marker id="ar_SMB1" viewBox="0 0 10 10" refX="8" refY="5" markerWidth="5" markerHeight="5" orient="auto-start-reverse"><path d="M2 1L8 5L2 9" fill="none" stroke="#85B7EB" stroke-width="1.5" stroke-linecap="round" stroke-linejoin="round"/></marker>
<marker id="ar_valid_domain_users2" viewBox="0 0 10 10" refX="8" refY="5" markerWidth="5" markerHeight="5" orient="auto-start-reverse"><path d="M2 1L8 5L2 9" fill="none" stroke="#F0997B" stroke-width="1.5" stroke-linecap="round" stroke-linejoin="round"/></marker>
<marker id="ar_WINRM1" viewBox="0 0 10 10" refX="8" refY="5" markerWidth="5" markerHeight="5" orient="auto-start-reverse"><path d="M2 1L8 5L2 9" fill="none" stroke="#ED93B1" stroke-width="1.5" stroke-linecap="round" stroke-linejoin="round"/></marker>
<marker id="ar_valid_creds1" viewBox="0 0 10 10" refX="8" refY="5" markerWidth="5" markerHeight="5" orient="auto-start-reverse"><path d="M2 1L8 5L2 9" fill="none" stroke="#B4B2A9" stroke-width="1.5" stroke-linecap="round" stroke-linejoin="round"/></marker>
<marker id="ar_user1" viewBox="0 0 10 10" refX="8" refY="5" markerWidth="5" markerHeight="5" orient="auto-start-reverse"><path d="M2 1L8 5L2 9" fill="none" stroke="#F09595" stroke-width="1.5" stroke-linecap="round" stroke-linejoin="round"/></marker>
<marker id="ar_user2" viewBox="0 0 10 10" refX="8" refY="5" markerWidth="5" markerHeight="5" orient="auto-start-reverse"><path d="M2 1L8 5L2 9" fill="none" stroke="#B4B2A9" stroke-width="1.5" stroke-linecap="round" stroke-linejoin="round"/></marker>
<marker id="ar_user3" viewBox="0 0 10 10" refX="8" refY="5" markerWidth="5" markerHeight="5" orient="auto-start-reverse"><path d="M2 1L8 5L2 9" fill="none" stroke="#85B7EB" stroke-width="1.5" stroke-linecap="round" stroke-linejoin="round"/></marker>
<marker id="ar_hashes" viewBox="0 0 10 10" refX="8" refY="5" markerWidth="5" markerHeight="5" orient="auto-start-reverse"><path d="M2 1L8 5L2 9" fill="none" stroke="#5DCAA5" stroke-width="1.5" stroke-linecap="round" stroke-linejoin="round"/></marker>
</defs>
<line x1="366.0" y1="161.0" x2="426.0" y2="55.0" stroke="#5DCAA5" stroke-width="1.5" stroke-dasharray="5 3" marker-end="url(#ar_port_80)"/>
<line x1="512.0" y1="161.0" x2="570.0" y2="55.0" stroke="#EF9F27" stroke-width="1.5" stroke-dasharray="5 3" marker-end="url(#ar_guest)"/>
<line x1="654.0" y1="161.0" x2="712.0" y2="55.0" stroke="#97C459" stroke-width="1.5" stroke-dasharray="5 3" marker-end="url(#ar_file1)"/>
<line x1="796.0" y1="275.0" x2="854.0" y2="55.0" stroke="#F0997B" stroke-width="1.5" stroke-dasharray="5 3" marker-end="url(#ar_MD5)"/>
<line x1="938.0" y1="161.0" x2="994.0" y2="55.0" stroke="#ED93B1" stroke-width="1.5" stroke-dasharray="5 3" marker-end="url(#ar_pass1)"/>
<line x1="1078.0" y1="199.0" x2="1181.0" y2="55.0" stroke="#ED93B1" stroke-width="1.5" stroke-dasharray="5 3" marker-end="url(#ar_pass1)"/>
<line x1="1078.0" y1="237.0" x2="1181.0" y2="93.0" stroke="#EF9F27" stroke-width="1.5" stroke-dasharray="5 3" marker-end="url(#ar_pass2)"/>
<line x1="1312.0" y1="351.0" x2="1368.0" y2="55.0" stroke="#F09595" stroke-width="1.5" stroke-dasharray="5 3" marker-end="url(#ar_valid_domain_users1)"/>
<line x1="393.0" y1="567.0" x2="531.0" y2="461.0" stroke="#85B7EB" stroke-width="1.5" stroke-dasharray="5 3" marker-end="url(#ar_SMB1)"/>
<line x1="662.0" y1="567.0" x2="718.0" y2="461.0" stroke="#F0997B" stroke-width="1.5" stroke-dasharray="5 3" marker-end="url(#ar_valid_domain_users2)"/>
<line x1="849.0" y1="681.0" x2="952.0" y2="461.0" stroke="#ED93B1" stroke-width="1.5" stroke-dasharray="5 3" marker-end="url(#ar_WINRM1)"/>
<path d="M1459.0,275.0 L1459.0,406.0 L353.0,406.0 L353.0,461.0" fill="none" stroke="#B4B2A9" stroke-width="1.5" stroke-dasharray="5 3" marker-end="url(#ar_valid_creds1)"/>
<text x="906.0" y="402.0" text-anchor="middle" font-family="Arial, sans-serif" font-size="10" fill="#B4B2A9">valid_creds1</text>
<path d="M614.0,184.0 L229.0,184.0 L229.0,169.0 L1185.0,169.0" fill="none" stroke="#F09595" stroke-width="1.2" stroke-dasharray="6 3" marker-end="url(#ar_user1)"/>
<text x="226.0" y="176.5" text-anchor="end" font-family="Arial, sans-serif" font-size="10" fill="#F09595">user1</text>
<path d="M756.0,146.0 L211.0,146.0 L211.0,207.0 L1185.0,207.0" fill="none" stroke="#B4B2A9" stroke-width="1.2" stroke-dasharray="6 3" marker-end="url(#ar_user2)"/>
<text x="208.0" y="176.5" text-anchor="end" font-family="Arial, sans-serif" font-size="10" fill="#B4B2A9">user2</text>
<path d="M756.0,184.0 L193.0,184.0 L193.0,245.0 L1185.0,245.0" fill="none" stroke="#85B7EB" stroke-width="1.2" stroke-dasharray="6 3" marker-end="url(#ar_user3)"/>
<text x="190.0" y="214.5" text-anchor="end" font-family="Arial, sans-serif" font-size="10" fill="#85B7EB">user3</text>
<path d="M756.0,222.0 L175.0,222.0 L175.0,93.0 L998.0,93.0" fill="none" stroke="#5DCAA5" stroke-width="1.2" stroke-dasharray="6 3" marker-end="url(#ar_hashes)"/>
<text x="172.0" y="157.5" text-anchor="end" font-family="Arial, sans-serif" font-size="10" fill="#5DCAA5">hashes</text>
<path d="M898.0,146.0 L157.0,146.0 L157.0,55.0 L1185.0,55.0" fill="none" stroke="#ED93B1" stroke-width="1.2" stroke-dasharray="6 3" marker-end="url(#ar_pass1)"/>
<text x="154.0" y="100.5" text-anchor="end" font-family="Arial, sans-serif" font-size="10" fill="#ED93B1">pass1</text>
<path d="M898.0,146.0 L139.0,146.0 L139.0,93.0 L1419.0,93.0" fill="none" stroke="#ED93B1" stroke-width="1.2" stroke-dasharray="6 3" marker-end="url(#ar_pass1)"/>
<text x="136.0" y="119.5" text-anchor="end" font-family="Arial, sans-serif" font-size="10" fill="#ED93B1">pass1</text>
<path d="M898.0,146.0 L121.0,146.0 L121.0,499.0 L769.0,499.0" fill="none" stroke="#ED93B1" stroke-width="1.2" stroke-dasharray="6 3" marker-end="url(#ar_pass1)"/>
<text x="118.0" y="322.5" text-anchor="end" font-family="Arial, sans-serif" font-size="10" fill="#ED93B1">pass1</text>
<path d="M1038.0,184.0 L103.0,184.0 L103.0,93.0 L1419.0,93.0" fill="none" stroke="#ED93B1" stroke-width="1.2" stroke-dasharray="6 3" marker-end="url(#ar_pass1)"/>
<text x="100.0" y="138.5" text-anchor="end" font-family="Arial, sans-serif" font-size="10" fill="#ED93B1">pass1</text>
<path d="M1038.0,184.0 L85.0,184.0 L85.0,499.0 L769.0,499.0" fill="none" stroke="#ED93B1" stroke-width="1.2" stroke-dasharray="6 3" marker-end="url(#ar_pass1)"/>
<text x="82.0" y="341.5" text-anchor="end" font-family="Arial, sans-serif" font-size="10" fill="#ED93B1">pass1</text>
<path d="M1038.0,222.0 L67.0,222.0 L67.0,131.0 L1419.0,131.0" fill="none" stroke="#EF9F27" stroke-width="1.2" stroke-dasharray="6 3" marker-end="url(#ar_pass2)"/>
<text x="64.0" y="176.5" text-anchor="end" font-family="Arial, sans-serif" font-size="10" fill="#EF9F27">pass2</text>
<path d="M1038.0,222.0 L49.0,222.0 L49.0,537.0 L769.0,537.0" fill="none" stroke="#EF9F27" stroke-width="1.2" stroke-dasharray="6 3" marker-end="url(#ar_pass2)"/>
<text x="46.0" y="379.5" text-anchor="end" font-family="Arial, sans-serif" font-size="10" fill="#EF9F27">pass2</text>
<rect x="0" y="30.0" width="1638" height="346.0" rx="0" fill="#111111" opacity="0.5"/>
<line x1="324.0" y1="70.0" x2="324.0" y2="90.0" stroke="#555553" stroke-width="1" marker-end="url(#ar)"/>
<line x1="324.0" y1="124.0" x2="324.0" y2="144.0" stroke="#555553" stroke-width="1" marker-end="url(#ar)"/>
<rect x="284.0" y="40.0" width="80" height="30" rx="6" fill="#378ADD" stroke="#85B7EB" stroke-width="0.5"/>
<text x="324.0" y="55.0" text-anchor="middle" dominant-baseline="central" font-family="Arial, sans-serif" font-size="12" font-weight="500" fill="#E6F1FB">target</text>
<ellipse cx="324.0" cy="108.0" rx="30" ry="16" fill="#7F77DD" stroke="#AFA9EC" stroke-width="0.5"/>
<text x="324.0" y="108.0" text-anchor="middle" dominant-baseline="central" font-family="Arial, sans-serif" font-size="11" font-weight="500" fill="#EEEDFE">nmap</text>
<rect x="282.0" y="146.0" width="84" height="30" rx="6" fill="#1D9E75" stroke="#5DCAA5" stroke-width="0.5"/>
<text x="324.0" y="161.0" text-anchor="middle" dominant-baseline="central" font-family="Arial, sans-serif" font-size="12" font-weight="500" fill="#E1F5EE">port 80</text>
<line x1="324.0" y1="176.0" x2="324.0" y2="184.0" stroke="#555553" stroke-width="0.5"/>
<rect x="278.0" y="184.0" width="92" height="30" rx="6" fill="#D85A30" stroke="#F0997B" stroke-width="0.5"/>
<text x="324.0" y="199.0" text-anchor="middle" dominant-baseline="central" font-family="Arial, sans-serif" font-size="12" font-weight="500" fill="#FAECE7">port 135</text>
<line x1="324.0" y1="214.0" x2="324.0" y2="222.0" stroke="#555553" stroke-width="0.5"/>
<rect x="278.0" y="222.0" width="92" height="30" rx="6" fill="#D4537E" stroke="#ED93B1" stroke-width="0.5"/>
<text x="324.0" y="237.0" text-anchor="middle" dominant-baseline="central" font-family="Arial, sans-serif" font-size="12" font-weight="500" fill="#FBEAF0">port 445</text>
<line x1="472.0" y1="70.0" x2="472.0" y2="90.0" stroke="#555553" stroke-width="1" marker-end="url(#ar)"/>
<line x1="472.0" y1="124.0" x2="472.0" y2="144.0" stroke="#555553" stroke-width="1" marker-end="url(#ar)"/>
<rect x="430.0" y="40.0" width="84" height="30" rx="6" fill="#1D9E75" stroke="#5DCAA5" stroke-width="0.5"/>
<text x="472.0" y="55.0" text-anchor="middle" dominant-baseline="central" font-family="Arial, sans-serif" font-size="12" font-weight="500" fill="#E1F5EE">port 80</text>
<ellipse cx="472.0" cy="108.0" rx="32" ry="16" fill="#7F77DD" stroke="#AFA9EC" stroke-width="0.5"/>
<text x="472.0" y="108.0" text-anchor="middle" dominant-baseline="central" font-family="Arial, sans-serif" font-size="11" font-weight="500" fill="#EEEDFE">login</text>
<rect x="432.0" y="146.0" width="80" height="30" rx="6" fill="#BA7517" stroke="#EF9F27" stroke-width="0.5"/>
<text x="472.0" y="161.0" text-anchor="middle" dominant-baseline="central" font-family="Arial, sans-serif" font-size="12" font-weight="500" fill="#FAEEDA">guest</text>
<line x1="614.0" y1="70.0" x2="614.0" y2="90.0" stroke="#555553" stroke-width="1" marker-end="url(#ar)"/>
<line x1="614.0" y1="124.0" x2="614.0" y2="144.0" stroke="#555553" stroke-width="1" marker-end="url(#ar)"/>
<rect x="574.0" y="40.0" width="80" height="30" rx="6" fill="#BA7517" stroke="#EF9F27" stroke-width="0.5"/>
<text x="614.0" y="55.0" text-anchor="middle" dominant-baseline="central" font-family="Arial, sans-serif" font-size="12" font-weight="500" fill="#FAEEDA">guest</text>
<ellipse cx="614.0" cy="108.0" rx="32" ry="16" fill="#7F77DD" stroke="#AFA9EC" stroke-width="0.5"/>
<text x="614.0" y="108.0" text-anchor="middle" dominant-baseline="central" font-family="Arial, sans-serif" font-size="11" font-weight="500" fill="#EEEDFE">found</text>
<rect x="574.0" y="146.0" width="80" height="30" rx="6" fill="#639922" stroke="#97C459" stroke-width="0.5"/>
<text x="614.0" y="161.0" text-anchor="middle" dominant-baseline="central" font-family="Arial, sans-serif" font-size="12" font-weight="500" fill="#EAF3DE">file1</text>
<line x1="614.0" y1="176.0" x2="614.0" y2="184.0" stroke="#555553" stroke-width="0.5"/>
<rect x="574.0" y="184.0" width="80" height="30" rx="6" fill="#E24B4A" stroke="#F09595" stroke-width="0.5"/>
<text x="614.0" y="199.0" text-anchor="middle" dominant-baseline="central" font-family="Arial, sans-serif" font-size="12" font-weight="500" fill="#FCEBEB">user1</text>
<line x1="756.0" y1="70.0" x2="756.0" y2="90.0" stroke="#555553" stroke-width="1" marker-end="url(#ar)"/>
<line x1="756.0" y1="124.0" x2="756.0" y2="144.0" stroke="#555553" stroke-width="1" marker-end="url(#ar)"/>
<rect x="716.0" y="40.0" width="80" height="30" rx="6" fill="#639922" stroke="#97C459" stroke-width="0.5"/>
<text x="756.0" y="55.0" text-anchor="middle" dominant-baseline="central" font-family="Arial, sans-serif" font-size="12" font-weight="500" fill="#EAF3DE">file1</text>
<ellipse cx="756.0" cy="108.0" rx="42" ry="16" fill="#7F77DD" stroke="#AFA9EC" stroke-width="0.5"/>
<text x="756.0" y="108.0" text-anchor="middle" dominant-baseline="central" font-family="Arial, sans-serif" font-size="11" font-weight="500" fill="#EEEDFE">contains</text>
<rect x="716.0" y="146.0" width="80" height="30" rx="6" fill="#888780" stroke="#B4B2A9" stroke-width="0.5"/>
<text x="756.0" y="161.0" text-anchor="middle" dominant-baseline="central" font-family="Arial, sans-serif" font-size="12" font-weight="500" fill="#F1EFE8">user2</text>
<line x1="756.0" y1="176.0" x2="756.0" y2="184.0" stroke="#555553" stroke-width="0.5"/>
<rect x="716.0" y="184.0" width="80" height="30" rx="6" fill="#378ADD" stroke="#85B7EB" stroke-width="0.5"/>
<text x="756.0" y="199.0" text-anchor="middle" dominant-baseline="central" font-family="Arial, sans-serif" font-size="12" font-weight="500" fill="#E6F1FB">user3</text>
<line x1="756.0" y1="214.0" x2="756.0" y2="222.0" stroke="#555553" stroke-width="0.5"/>
<rect x="716.0" y="222.0" width="80" height="30" rx="6" fill="#1D9E75" stroke="#5DCAA5" stroke-width="0.5"/>
<text x="756.0" y="237.0" text-anchor="middle" dominant-baseline="central" font-family="Arial, sans-serif" font-size="12" font-weight="500" fill="#E1F5EE">hashes</text>
<line x1="756.0" y1="252.0" x2="756.0" y2="260.0" stroke="#555553" stroke-width="0.5"/>
<rect x="716.0" y="260.0" width="80" height="30" rx="6" fill="#D85A30" stroke="#F0997B" stroke-width="0.5"/>
<text x="756.0" y="275.0" text-anchor="middle" dominant-baseline="central" font-family="Arial, sans-serif" font-size="12" font-weight="500" fill="#FAECE7">MD5</text>
<line x1="898.0" y1="70.0" x2="898.0" y2="90.0" stroke="#555553" stroke-width="1" marker-end="url(#ar)"/>
<line x1="898.0" y1="124.0" x2="898.0" y2="144.0" stroke="#555553" stroke-width="1" marker-end="url(#ar)"/>
<rect x="858.0" y="40.0" width="80" height="30" rx="6" fill="#D85A30" stroke="#F0997B" stroke-width="0.5"/>
<text x="898.0" y="55.0" text-anchor="middle" dominant-baseline="central" font-family="Arial, sans-serif" font-size="12" font-weight="500" fill="#FAECE7">MD5</text>
<ellipse cx="898.0" cy="108.0" rx="32" ry="16" fill="#7F77DD" stroke="#AFA9EC" stroke-width="0.5"/>
<text x="898.0" y="108.0" text-anchor="middle" dominant-baseline="central" font-family="Arial, sans-serif" font-size="11" font-weight="500" fill="#EEEDFE">crack</text>
<rect x="858.0" y="146.0" width="80" height="30" rx="6" fill="#D4537E" stroke="#ED93B1" stroke-width="0.5"/>
<text x="898.0" y="161.0" text-anchor="middle" dominant-baseline="central" font-family="Arial, sans-serif" font-size="12" font-weight="500" fill="#FBEAF0">pass1</text>
<line x1="1038.0" y1="108.0" x2="1038.0" y2="128.0" stroke="#555553" stroke-width="1" marker-end="url(#ar)"/>
<line x1="1038.0" y1="162.0" x2="1038.0" y2="182.0" stroke="#555553" stroke-width="1" marker-end="url(#ar)"/>
<rect x="998.0" y="40.0" width="80" height="30" rx="6" fill="#D4537E" stroke="#ED93B1" stroke-width="0.5"/>
<text x="1038.0" y="55.0" text-anchor="middle" dominant-baseline="central" font-family="Arial, sans-serif" font-size="12" font-weight="500" fill="#FBEAF0">pass1</text>
<line x1="1038.0" y1="70.0" x2="1038.0" y2="78.0" stroke="#555553" stroke-width="0.5"/>
<rect x="998.0" y="78.0" width="80" height="30" rx="6" fill="#1D9E75" stroke="#5DCAA5" stroke-width="0.5"/>
<text x="1038.0" y="93.0" text-anchor="middle" dominant-baseline="central" font-family="Arial, sans-serif" font-size="12" font-weight="500" fill="#E1F5EE">hashes</text>
<ellipse cx="1038.0" cy="146.0" rx="39" ry="16" fill="#7F77DD" stroke="#AFA9EC" stroke-width="0.5"/>
<text x="1038.0" y="146.0" text-anchor="middle" dominant-baseline="central" font-family="Arial, sans-serif" font-size="11" font-weight="500" fill="#EEEDFE">decrypt</text>
<rect x="998.0" y="184.0" width="80" height="30" rx="6" fill="#D4537E" stroke="#ED93B1" stroke-width="0.5"/>
<text x="1038.0" y="199.0" text-anchor="middle" dominant-baseline="central" font-family="Arial, sans-serif" font-size="12" font-weight="500" fill="#FBEAF0">pass1</text>
<line x1="1038.0" y1="214.0" x2="1038.0" y2="222.0" stroke="#555553" stroke-width="0.5"/>
<rect x="998.0" y="222.0" width="80" height="30" rx="6" fill="#BA7517" stroke="#EF9F27" stroke-width="0.5"/>
<text x="1038.0" y="237.0" text-anchor="middle" dominant-baseline="central" font-family="Arial, sans-serif" font-size="12" font-weight="500" fill="#FAEEDA">pass2</text>
<line x1="1225.0" y1="260.0" x2="1225.0" y2="280.0" stroke="#555553" stroke-width="1" marker-end="url(#ar)"/>
<line x1="1225.0" y1="314.0" x2="1225.0" y2="334.0" stroke="#555553" stroke-width="1" marker-end="url(#ar)"/>
<rect x="1185.0" y="40.0" width="80" height="30" rx="6" fill="#D4537E" stroke="#ED93B1" stroke-width="0.5"/>
<text x="1225.0" y="55.0" text-anchor="middle" dominant-baseline="central" font-family="Arial, sans-serif" font-size="12" font-weight="500" fill="#FBEAF0">pass1</text>
<line x1="1225.0" y1="70.0" x2="1225.0" y2="78.0" stroke="#555553" stroke-width="0.5"/>
<rect x="1185.0" y="78.0" width="80" height="30" rx="6" fill="#BA7517" stroke="#EF9F27" stroke-width="0.5"/>
<text x="1225.0" y="93.0" text-anchor="middle" dominant-baseline="central" font-family="Arial, sans-serif" font-size="12" font-weight="500" fill="#FAEEDA">pass2</text>
<line x1="1225.0" y1="108.0" x2="1225.0" y2="116.0" stroke="#555553" stroke-width="0.5"/>
<rect x="1185.0" y="116.0" width="80" height="30" rx="6" fill="#639922" stroke="#97C459" stroke-width="0.5"/>
<text x="1225.0" y="131.0" text-anchor="middle" dominant-baseline="central" font-family="Arial, sans-serif" font-size="12" font-weight="500" fill="#EAF3DE">pass3</text>
<line x1="1225.0" y1="146.0" x2="1225.0" y2="154.0" stroke="#555553" stroke-width="0.5"/>
<rect x="1185.0" y="154.0" width="80" height="30" rx="6" fill="#E24B4A" stroke="#F09595" stroke-width="0.5"/>
<text x="1225.0" y="169.0" text-anchor="middle" dominant-baseline="central" font-family="Arial, sans-serif" font-size="12" font-weight="500" fill="#FCEBEB">user1</text>
<line x1="1225.0" y1="184.0" x2="1225.0" y2="192.0" stroke="#555553" stroke-width="0.5"/>
<rect x="1185.0" y="192.0" width="80" height="30" rx="6" fill="#888780" stroke="#B4B2A9" stroke-width="0.5"/>
<text x="1225.0" y="207.0" text-anchor="middle" dominant-baseline="central" font-family="Arial, sans-serif" font-size="12" font-weight="500" fill="#F1EFE8">user2</text>
<line x1="1225.0" y1="222.0" x2="1225.0" y2="230.0" stroke="#555553" stroke-width="0.5"/>
<rect x="1185.0" y="230.0" width="80" height="30" rx="6" fill="#378ADD" stroke="#85B7EB" stroke-width="0.5"/>
<text x="1225.0" y="245.0" text-anchor="middle" dominant-baseline="central" font-family="Arial, sans-serif" font-size="12" font-weight="500" fill="#E6F1FB">user3</text>
<ellipse cx="1225.0" cy="298.0" rx="68" ry="16" fill="#7F77DD" stroke="#AFA9EC" stroke-width="0.5"/>
<text x="1225.0" y="298.0" text-anchor="middle" dominant-baseline="central" font-family="Arial, sans-serif" font-size="11" font-weight="500" fill="#EEEDFE">rid-brute-force</text>
<rect x="1138.0" y="336.0" width="174" height="30" rx="6" fill="#E24B4A" stroke="#F09595" stroke-width="0.5"/>
<text x="1225.0" y="351.0" text-anchor="middle" dominant-baseline="central" font-family="Arial, sans-serif" font-size="12" font-weight="500" fill="#FCEBEB">valid_domain_users1</text>
<line x1="1459.0" y1="184.0" x2="1459.0" y2="204.0" stroke="#555553" stroke-width="1" marker-end="url(#ar)"/>
<line x1="1459.0" y1="238.0" x2="1459.0" y2="258.0" stroke="#555553" stroke-width="1" marker-end="url(#ar)"/>
<rect x="1372.0" y="40.0" width="174" height="30" rx="6" fill="#E24B4A" stroke="#F09595" stroke-width="0.5"/>
<text x="1459.0" y="55.0" text-anchor="middle" dominant-baseline="central" font-family="Arial, sans-serif" font-size="12" font-weight="500" fill="#FCEBEB">valid_domain_users1</text>
<line x1="1459.0" y1="70.0" x2="1459.0" y2="78.0" stroke="#555553" stroke-width="0.5"/>
<rect x="1419.0" y="78.0" width="80" height="30" rx="6" fill="#D4537E" stroke="#ED93B1" stroke-width="0.5"/>
<text x="1459.0" y="93.0" text-anchor="middle" dominant-baseline="central" font-family="Arial, sans-serif" font-size="12" font-weight="500" fill="#FBEAF0">pass1</text>
<line x1="1459.0" y1="108.0" x2="1459.0" y2="116.0" stroke="#555553" stroke-width="0.5"/>
<rect x="1419.0" y="116.0" width="80" height="30" rx="6" fill="#BA7517" stroke="#EF9F27" stroke-width="0.5"/>
<text x="1459.0" y="131.0" text-anchor="middle" dominant-baseline="central" font-family="Arial, sans-serif" font-size="12" font-weight="500" fill="#FAEEDA">pass2</text>
<line x1="1459.0" y1="146.0" x2="1459.0" y2="154.0" stroke="#555553" stroke-width="0.5"/>
<rect x="1419.0" y="154.0" width="80" height="30" rx="6" fill="#639922" stroke="#97C459" stroke-width="0.5"/>
<text x="1459.0" y="169.0" text-anchor="middle" dominant-baseline="central" font-family="Arial, sans-serif" font-size="12" font-weight="500" fill="#EAF3DE">pass3</text>
<ellipse cx="1459.0" cy="222.0" rx="42" ry="16" fill="#7F77DD" stroke="#AFA9EC" stroke-width="0.5"/>
<text x="1459.0" y="222.0" text-anchor="middle" dominant-baseline="central" font-family="Arial, sans-serif" font-size="11" font-weight="500" fill="#EEEDFE">spraying</text>
<rect x="1398.0" y="260.0" width="122" height="30" rx="6" fill="#888780" stroke="#B4B2A9" stroke-width="0.5"/>
<text x="1459.0" y="275.0" text-anchor="middle" dominant-baseline="central" font-family="Arial, sans-serif" font-size="12" font-weight="500" fill="#F1EFE8">valid_creds1</text>
<rect x="0" y="436.0" width="1638" height="270.0" rx="0" fill="#111111" opacity="0.5"/>
<line x1="353.0" y1="476.0" x2="353.0" y2="496.0" stroke="#555553" stroke-width="1" marker-end="url(#ar)"/>
<line x1="353.0" y1="530.0" x2="353.0" y2="550.0" stroke="#555553" stroke-width="1" marker-end="url(#ar)"/>
<rect x="292.0" y="446.0" width="122" height="30" rx="6" fill="#888780" stroke="#B4B2A9" stroke-width="0.5"/>
<text x="353.0" y="461.0" text-anchor="middle" dominant-baseline="central" font-family="Arial, sans-serif" font-size="12" font-weight="500" fill="#F1EFE8">valid_creds1</text>
<ellipse cx="353.0" cy="514.0" rx="75" ry="16" fill="#7F77DD" stroke="#AFA9EC" stroke-width="0.5"/>
<text x="353.0" y="514.0" text-anchor="middle" dominant-baseline="central" font-family="Arial, sans-serif" font-size="11" font-weight="500" fill="#EEEDFE">creds_vs_services</text>
<rect x="313.0" y="552.0" width="80" height="30" rx="6" fill="#378ADD" stroke="#85B7EB" stroke-width="0.5"/>
<text x="353.0" y="567.0" text-anchor="middle" dominant-baseline="central" font-family="Arial, sans-serif" font-size="12" font-weight="500" fill="#E6F1FB">SMB1</text>
<line x1="353.0" y1="582.0" x2="353.0" y2="590.0" stroke="#555553" stroke-width="0.5"/>
<rect x="313.0" y="590.0" width="80" height="30" rx="6" fill="#1D9E75" stroke="#5DCAA5" stroke-width="0.5"/>
<text x="353.0" y="605.0" text-anchor="middle" dominant-baseline="central" font-family="Arial, sans-serif" font-size="12" font-weight="500" fill="#E1F5EE">RPC1</text>
<line x1="575.0" y1="476.0" x2="575.0" y2="496.0" stroke="#555553" stroke-width="1" marker-end="url(#ar)"/>
<line x1="575.0" y1="530.0" x2="575.0" y2="550.0" stroke="#555553" stroke-width="1" marker-end="url(#ar)"/>
<rect x="535.0" y="446.0" width="80" height="30" rx="6" fill="#378ADD" stroke="#85B7EB" stroke-width="0.5"/>
<text x="575.0" y="461.0" text-anchor="middle" dominant-baseline="central" font-family="Arial, sans-serif" font-size="12" font-weight="500" fill="#E6F1FB">SMB1</text>
<ellipse cx="575.0" cy="514.0" rx="68" ry="16" fill="#7F77DD" stroke="#AFA9EC" stroke-width="0.5"/>
<text x="575.0" y="514.0" text-anchor="middle" dominant-baseline="central" font-family="Arial, sans-serif" font-size="11" font-weight="500" fill="#EEEDFE">rid-brute-force</text>
<rect x="488.0" y="552.0" width="174" height="30" rx="6" fill="#D85A30" stroke="#F0997B" stroke-width="0.5"/>
<text x="575.0" y="567.0" text-anchor="middle" dominant-baseline="central" font-family="Arial, sans-serif" font-size="12" font-weight="500" fill="#FAECE7">valid_domain_users2</text>
<line x1="809.0" y1="590.0" x2="809.0" y2="610.0" stroke="#555553" stroke-width="1" marker-end="url(#ar)"/>
<line x1="809.0" y1="644.0" x2="809.0" y2="664.0" stroke="#555553" stroke-width="1" marker-end="url(#ar)"/>
<rect x="722.0" y="446.0" width="174" height="30" rx="6" fill="#D85A30" stroke="#F0997B" stroke-width="0.5"/>
<text x="809.0" y="461.0" text-anchor="middle" dominant-baseline="central" font-family="Arial, sans-serif" font-size="12" font-weight="500" fill="#FAECE7">valid_domain_users2</text>
<line x1="809.0" y1="476.0" x2="809.0" y2="484.0" stroke="#555553" stroke-width="0.5"/>
<rect x="769.0" y="484.0" width="80" height="30" rx="6" fill="#D4537E" stroke="#ED93B1" stroke-width="0.5"/>
<text x="809.0" y="499.0" text-anchor="middle" dominant-baseline="central" font-family="Arial, sans-serif" font-size="12" font-weight="500" fill="#FBEAF0">pass1</text>
<line x1="809.0" y1="514.0" x2="809.0" y2="522.0" stroke="#555553" stroke-width="0.5"/>
<rect x="769.0" y="522.0" width="80" height="30" rx="6" fill="#BA7517" stroke="#EF9F27" stroke-width="0.5"/>
<text x="809.0" y="537.0" text-anchor="middle" dominant-baseline="central" font-family="Arial, sans-serif" font-size="12" font-weight="500" fill="#FAEEDA">pass2</text>
<line x1="809.0" y1="552.0" x2="809.0" y2="560.0" stroke="#555553" stroke-width="0.5"/>
<rect x="769.0" y="560.0" width="80" height="30" rx="6" fill="#639922" stroke="#97C459" stroke-width="0.5"/>
<text x="809.0" y="575.0" text-anchor="middle" dominant-baseline="central" font-family="Arial, sans-serif" font-size="12" font-weight="500" fill="#EAF3DE">pass3</text>
<ellipse cx="809.0" cy="628.0" rx="42" ry="16" fill="#7F77DD" stroke="#AFA9EC" stroke-width="0.5"/>
<text x="809.0" y="628.0" text-anchor="middle" dominant-baseline="central" font-family="Arial, sans-serif" font-size="11" font-weight="500" fill="#EEEDFE">spraying</text>
<rect x="769.0" y="666.0" width="80" height="30" rx="6" fill="#D4537E" stroke="#ED93B1" stroke-width="0.5"/>
<text x="809.0" y="681.0" text-anchor="middle" dominant-baseline="central" font-family="Arial, sans-serif" font-size="12" font-weight="500" fill="#FBEAF0">WINRM1</text>
<line x1="996.0" y1="476.0" x2="996.0" y2="496.0" stroke="#555553" stroke-width="1" marker-end="url(#ar)"/>
<line x1="996.0" y1="530.0" x2="996.0" y2="550.0" stroke="#555553" stroke-width="1" marker-end="url(#ar)"/>
<rect x="956.0" y="446.0" width="80" height="30" rx="6" fill="#D4537E" stroke="#ED93B1" stroke-width="0.5"/>
<text x="996.0" y="461.0" text-anchor="middle" dominant-baseline="central" font-family="Arial, sans-serif" font-size="12" font-weight="500" fill="#FBEAF0">WINRM1</text>
<ellipse cx="996.0" cy="514.0" rx="32" ry="16" fill="#7F77DD" stroke="#AFA9EC" stroke-width="0.5"/>
<text x="996.0" y="514.0" text-anchor="middle" dominant-baseline="central" font-family="Arial, sans-serif" font-size="11" font-weight="500" fill="#EEEDFE">login</text>
<rect x="956.0" y="552.0" width="80" height="30" rx="6" fill="#E24B4A" stroke="#F09595" stroke-width="0.5"/>
<text x="996.0" y="567.0" text-anchor="middle" dominant-baseline="central" font-family="Arial, sans-serif" font-size="12" font-weight="500" fill="#FCEBEB">user1</text>
</svg>